STARTFONT 2.1
FONT --Tms Rmn-Regular-R-Medium--23-140-120-120-P-131-IBM-UGL
SIZE 14 120 120
FONTBOUNDINGBOX 24 27 0 -6
METRICSSET 2
STARTPROPERTIES 28
FONT_ASCENT 17
FONT_DESCENT 6
PIXEL_SIZE 23
RESOLUTION_X 120
RESOLUTION_Y 120
POINT_SIZE 140
FACE_NAME "Tms Rmn"
FOUNDRY ""
FAMILY_NAME "Tms Rmn"
WEIGHT_NAME "Regular"
RELATIVE_WEIGHT 50
SLANT "R"
SPACING "P"
SETWIDTH_NAME "Medium"
RELATIVE_SETWIDTH 50
ADD_STYLE_NAME ""
AVERAGE_WIDTH 131
UNDERLINE_POSITION 3
UNDERLINE_THICKNESS 2
SUPERSCRIPT_SIZE 16
SUBSCRIPT_SIZE 16
SUPERSCRIPT_X 0
SUPERSCRIPT_Y 10
SUBSCRIPT_X 0
SUBSCRIPT_Y 5
DEFAULT_CHAR 32
CHARSET_REGISTRY "IBM"
CHARSET_ENCODING "UGL"
ENDPROPERTIES
CHARS 382
STARTCHAR smileface
ENCODING 1
SWIDTH 729 0
DWIDTH 17 0
BBX 15 16 1 0
VVECTOR 9 21
SWIDTH1 0 -1157
DWIDTH1 0 -27
BITMAP 
07C0
1830
2008
4004
4004
8C62
8C62
8002
8002
A00A
9832
4FE4
4384
2008
1830
07C0
ENDCHAR
STARTCHAR invsmileface
ENCODING 2
SWIDTH 729 0
DWIDTH 17 0
BBX 15 16 1 0
VVECTOR 9 21
SWIDTH1 0 -1157
DWIDTH1 0 -27
BITMAP 
07C0
1FF0
3FF8
7FFC
7FFC
F39E
F39E
FFFE
FFFE
DFF6
E7CE
701C
783C
3FF8
1FF0
07C0
ENDCHAR
STARTCHAR heart
ENCODING 3
SWIDTH 729 0
DWIDTH 17 0
BBX 15 16 1 0
VVECTOR 9 21
SWIDTH1 0 -1157
DWIDTH1 0 -27
BITMAP 
3838
7C7C
FEFE
FFFE
FFFE
7FFC
7FFC
3FF8
3FF8
1FF0
0FE0
0FE0
07C0
0380
0380
0100
ENDCHAR
STARTCHAR diamond
ENCODING 4
SWIDTH 729 0
DWIDTH 17 0
BBX 11 16 3 0
VVECTOR 9 21
SWIDTH1 0 -1157
DWIDTH1 0 -27
BITMAP 
0400
0E00
0E00
1F00
3F80
3F80
7FC0
FFE0
FFE0
7FC0
3F80
3F80
1F00
0E00
0E00
0400
ENDCHAR
STARTCHAR club
ENCODING 5
SWIDTH 729 0
DWIDTH 17 0
BBX 15 16 1 0
VVECTOR 9 21
SWIDTH1 0 -1157
DWIDTH1 0 -27
BITMAP 
0380
07C0
0FE0
0FE0
0FE0
37D8
7FFC
FFFE
FFFE
FFFE
FEFE
7D7C
0100
0380
07C0
1FF0
ENDCHAR
STARTCHAR spade
ENCODING 6
SWIDTH 729 0
DWIDTH 17 0
BBX 13 16 2 0
VVECTOR 9 21
SWIDTH1 0 -1157
DWIDTH1 0 -27
BITMAP 
0200
0700
0700
0F80
1FC0
3FE0
7FF0
FFF8
FFF8
FFF8
FFF8
7AF0
0200
0700
0F80
3FE0
ENDCHAR
STARTCHAR bullet
ENCODING 7
SWIDTH 729 0
DWIDTH 17 0
BBX 7 7 5 5
VVECTOR 9 21
SWIDTH1 0 -1157
DWIDTH1 0 -27
BITMAP 
7C
FE
FE
FE
FE
FE
7C
ENDCHAR
STARTCHAR invbullet
ENCODING 8
SWIDTH 729 0
DWIDTH 17 0
BBX 17 17 0 0
VVECTOR 9 21
SWIDTH1 0 -1157
DWIDTH1 0 -27
BITMAP 
FFFF80
FFFF80
FFFF80
FFFF80
FFFF80
FC1F80
F80F80
F80F80
F80F80
F80F80
F80F80
FC1F80
FFFF80
FFFF80
FFFF80
FFFF80
FFFF80
ENDCHAR
STARTCHAR circle
ENCODING 9
SWIDTH 729 0
DWIDTH 17 0
BBX 13 13 2 2
VVECTOR 9 21
SWIDTH1 0 -1157
DWIDTH1 0 -27
BITMAP 
0F80
3060
6030
4010
8008
8008
8008
8008
8008
4010
6030
3060
0F80
ENDCHAR
STARTCHAR invcircle
ENCODING 10
SWIDTH 729 0
DWIDTH 17 0
BBX 17 17 0 0
VVECTOR 9 21
SWIDTH1 0 -1157
DWIDTH1 0 -27
BITMAP 
FFFF80
FFFF80
FC1F80
F3E780
E7F380
EFFB80
DFFD80
DFFD80
DFFD80
DFFD80
DFFD80
EFFB80
E7F380
F3E780
FC1F80
FFFF80
FFFF80
ENDCHAR
STARTCHAR male
ENCODING 11
SWIDTH 557 0
DWIDTH 13 0
BBX 12 13 1 3
VVECTOR 8 21
SWIDTH1 0 -1157
DWIDTH1 0 -27
BITMAP 
01F0
0070
0070
0090
0110
3E00
4200
8100
8100
8100
8100
4200
3C00
ENDCHAR
STARTCHAR female
ENCODING 12
SWIDTH 557 0
DWIDTH 13 0
BBX 7 14 3 3
VVECTOR 7 21
SWIDTH1 0 -1157
DWIDTH1 0 -27
BITMAP 
38
44
82
82
82
82
44
38
10
10
FE
10
10
10
ENDCHAR
STARTCHAR musicalnote
ENCODING 13
SWIDTH 471 0
DWIDTH 11 0
BBX 9 17 1 0
VVECTOR 6 21
SWIDTH1 0 -1157
DWIDTH1 0 -27
BITMAP 
0800
0800
0C00
0C00
0E00
0F00
0B00
0980
0980
0880
0880
0880
0900
7900
F800
F000
6000
ENDCHAR
STARTCHAR musicalnotedbl
ENCODING 14
SWIDTH 686 0
DWIDTH 16 0
BBX 14 17 0 0
VVECTOR 6 21
SWIDTH1 0 -1157
DWIDTH1 0 -27
BITMAP 
000C
00FC
0FE4
0E04
083C
0BFC
0F84
0804
0804
0804
0804
0804
083C
787C
F878
F030
6000
ENDCHAR
STARTCHAR sun
ENCODING 15
SWIDTH 600 0
DWIDTH 14 0
BBX 14 14 0 1
VVECTOR 7 21
SWIDTH1 0 -1157
DWIDTH1 0 -27
BITMAP 
0300
0300
6318
37B0
1CE0
1860
F03C
F03C
1860
1CE0
37B0
6318
0300
0300
ENDCHAR
STARTCHAR triagrt
ENCODING 16
SWIDTH 729 0
DWIDTH 17 0
BBX 10 10 4 3
VVECTOR 10 21
SWIDTH1 0 -1157
DWIDTH1 0 -27
BITMAP 
C000
F000
FC00
FF00
FFC0
FFC0
FF00
FC00
F000
C000
ENDCHAR
STARTCHAR triaglf
ENCODING 17
SWIDTH 729 0
DWIDTH 17 0
BBX 10 10 3 3
VVECTOR 8 21
SWIDTH1 0 -1157
DWIDTH1 0 -27
BITMAP 
00C0
03C0
0FC0
3FC0
FFC0
FFC0
3FC0
0FC0
03C0
00C0
ENDCHAR
STARTCHAR arrowupdn
ENCODING 18
SWIDTH 429 0
DWIDTH 10 0
BBX 7 17 2 0
VVECTOR 6 21
SWIDTH1 0 -1157
DWIDTH1 0 -27
BITMAP 
10
38
7C
D6
10
10
10
10
10
10
10
10
10
D6
7C
38
10
ENDCHAR
STARTCHAR exclamdbl
ENCODING 19
SWIDTH 600 0
DWIDTH 14 0
BBX 9 17 2 0
VVECTOR 6 21
SWIDTH1 0 -1157
DWIDTH1 0 -27
BITMAP 
4100
E380
E380
E380
E380
E380
E380
E380
E380
4100
4100
4100
4100
0000
4100
E380
4100
ENDCHAR
STARTCHAR char14
ENCODING 20
SWIDTH 471 0
DWIDTH 11 0
BBX 11 21 0 -4
VVECTOR 6 21
SWIDTH1 0 -1157
DWIDTH1 0 -27
BITMAP 
3FE0
7FE0
FCC0
FCC0
FCC0
FCC0
FCC0
7CC0
3CC0
0CC0
0CC0
0CC0
0CC0
0CC0
0CC0
0CC0
0CC0
0CC0
0CC0
0CC0
0CC0
ENDCHAR
STARTCHAR char15
ENCODING 21
SWIDTH 514 0
DWIDTH 12 0
BBX 9 20 2 -3
VVECTOR 7 21
SWIDTH1 0 -1157
DWIDTH1 0 -27
BITMAP 
1E00
3300
6300
6000
3000
1800
3C00
4E00
C700
C380
E180
7180
3900
1E00
0C00
0600
0300
6300
6600
3C00
ENDCHAR
STARTCHAR filledrect
ENCODING 22
SWIDTH 729 0
DWIDTH 17 0
BBX 15 7 1 5
VVECTOR 9 21
SWIDTH1 0 -1157
DWIDTH1 0 -27
BITMAP 
FFFE
FFFE
FFFE
FFFE
FFFE
FFFE
FFFE
ENDCHAR
STARTCHAR arrowupdnbse
ENCODING 23
SWIDTH 429 0
DWIDTH 10 0
BBX 7 21 2 -4
VVECTOR 6 21
SWIDTH1 0 -1157
DWIDTH1 0 -27
BITMAP 
10
38
7C
D6
10
10
10
10
10
10
10
10
10
D6
7C
38
10
00
00
FE
FE
ENDCHAR
STARTCHAR arrowup
ENCODING 24
SWIDTH 429 0
DWIDTH 10 0
BBX 7 17 2 0
VVECTOR 6 21
SWIDTH1 0 -1157
DWIDTH1 0 -27
BITMAP 
10
38
7C
D6
10
10
10
10
10
10
10
10
10
10
10
10
10
ENDCHAR
STARTCHAR arrowdown
ENCODING 25
SWIDTH 429 0
DWIDTH 10 0
BBX 7 17 2 0
VVECTOR 6 21
SWIDTH1 0 -1157
DWIDTH1 0 -27
BITMAP 
10
10
10
10
10
10
10
10
10
10
10
10
10
D6
7C
38
10
ENDCHAR
STARTCHAR arrowright
ENCODING 26
SWIDTH 814 0
DWIDTH 19 0
BBX 17 7 1 3
VVECTOR 10 21
SWIDTH1 0 -1157
DWIDTH1 0 -27
BITMAP 
000400
000600
000300
FFFF80
000300
000600
000400
ENDCHAR
STARTCHAR arrowleft
ENCODING 27
SWIDTH 857 0
DWIDTH 20 0
BBX 17 7 1 3
VVECTOR 9 21
SWIDTH1 0 -1157
DWIDTH1 0 -27
BITMAP 
100000
300000
600000
FFFF80
600000
300000
100000
ENDCHAR
STARTCHAR orthogonal
ENCODING 28
SWIDTH 600 0
DWIDTH 14 0
BBX 11 9 2 0
VVECTOR 8 21
SWIDTH1 0 -1157
DWIDTH1 0 -27
BITMAP 
C000
C000
C000
C000
C000
C000
C000
FFE0
FFE0
ENDCHAR
STARTCHAR arrowboth
ENCODING 29
SWIDTH 771 0
DWIDTH 18 0
BBX 14 7 2 3
VVECTOR 9 21
SWIDTH1 0 -1157
DWIDTH1 0 -27
BITMAP 
1020
3030
6018
FFFC
6018
3030
1020
ENDCHAR
STARTCHAR triagup
ENCODING 30
SWIDTH 729 0
DWIDTH 17 0
BBX 11 11 3 3
VVECTOR 9 21
SWIDTH1 0 -1157
DWIDTH1 0 -27
BITMAP 
0400
0400
0E00
0E00
1F00
1F00
3F80
3F80
7FC0
7FC0
FFE0
ENDCHAR
STARTCHAR triagdn
ENCODING 31
SWIDTH 729 0
DWIDTH 17 0
BBX 11 11 3 2
VVECTOR 9 21
SWIDTH1 0 -1157
DWIDTH1 0 -27
BITMAP 
FFE0
7FC0
7FC0
3F80
3F80
1F00
1F00
0E00
0E00
0400
0400
ENDCHAR
STARTCHAR space
ENCODING 32
SWIDTH 257 0
DWIDTH 6 0
BBX 0 0 6 21
VVECTOR 9 21
SWIDTH1 0 -1157
DWIDTH1 0 -27
BITMAP 
ENDCHAR
STARTCHAR exclam
ENCODING 33
SWIDTH 300 0
DWIDTH 7 0
BBX 3 17 2 0
VVECTOR 4 21
SWIDTH1 0 -1157
DWIDTH1 0 -27
BITMAP 
40
E0
E0
E0
E0
E0
E0
E0
40
40
40
40
00
40
E0
E0
40
ENDCHAR
STARTCHAR quotedbl
ENCODING 34
SWIDTH 429 0
DWIDTH 10 0
BBX 8 6 1 11
VVECTOR 5 21
SWIDTH1 0 -1157
DWIDTH1 0 -27
BITMAP 
42
E7
E7
42
42
42
ENDCHAR
STARTCHAR numbersign
ENCODING 35
SWIDTH 514 0
DWIDTH 12 0
BBX 12 17 0 0
VVECTOR 6 21
SWIDTH1 0 -1157
DWIDTH1 0 -27
BITMAP 
18C0
18C0
18C0
18C0
18C0
7FF0
3180
3180
3180
3180
3180
FFE0
6300
6300
6300
6300
6300
ENDCHAR
STARTCHAR dollar
ENCODING 36
SWIDTH 514 0
DWIDTH 12 0
BBX 10 21 1 -3
VVECTOR 6 21
SWIDTH1 0 -1157
DWIDTH1 0 -27
BITMAP 
0400
0400
1F40
35C0
64C0
6440
6440
7400
3C00
1F00
0780
0580
05C0
84C0
84C0
C4C0
E580
BF00
0400
0400
0400
ENDCHAR
STARTCHAR percent
ENCODING 37
SWIDTH 857 0
DWIDTH 20 0
BBX 18 17 1 0
VVECTOR 10 21
SWIDTH1 0 -1157
DWIDTH1 0 -27
BITMAP 
1E0600
33FE00
611C00
C11800
C11800
C23000
C46000
786000
00C000
018780
018CC0
031840
063040
063040
0C3080
183100
181E00
ENDCHAR
STARTCHAR ampersand
ENCODING 38
SWIDTH 814 0
DWIDTH 19 0
BBX 17 17 1 0
VVECTOR 10 21
SWIDTH1 0 -1157
DWIDTH1 0 -27
BITMAP 
038000
06C000
0C6000
0C2000
0C6000
06C000
078000
0F1F00
3B8E00
618400
60CC00
C0E800
C07800
C03800
607C80
79CF80
1F0700
ENDCHAR
STARTCHAR quotesingle
ENCODING 39
SWIDTH 257 0
DWIDTH 6 0
BBX 3 6 2 11
VVECTOR 4 21
SWIDTH1 0 -1157
DWIDTH1 0 -27
BITMAP 
40
E0
E0
40
40
40
ENDCHAR
STARTCHAR parenleft
ENCODING 40
SWIDTH 343 0
DWIDTH 8 0
BBX 6 22 1 -5
VVECTOR 4 21
SWIDTH1 0 -1157
DWIDTH1 0 -27
BITMAP 
04
08
10
30
20
60
60
C0
C0
C0
C0
C0
C0
C0
C0
60
60
20
30
10
08
04
ENDCHAR
STARTCHAR parenright
ENCODING 41
SWIDTH 343 0
DWIDTH 8 0
BBX 6 22 1 -5
VVECTOR 4 21
SWIDTH1 0 -1157
DWIDTH1 0 -27
BITMAP 
80
40
20
30
10
18
18
0C
0C
0C
0C
0C
0C
0C
0C
0C
18
18
10
30
20
40
ENDCHAR
STARTCHAR asterisk
ENCODING 42
SWIDTH 343 0
DWIDTH 8 0
BBX 7 9 1 9
VVECTOR 5 21
SWIDTH1 0 -1157
DWIDTH1 0 -27
BITMAP 
10
38
D6
FE
38
FE
D6
38
10
ENDCHAR
STARTCHAR plus
ENCODING 43
SWIDTH 600 0
DWIDTH 14 0
BBX 10 10 2 2
VVECTOR 7 21
SWIDTH1 0 -1157
DWIDTH1 0 -27
BITMAP 
0C00
0C00
0C00
0C00
FFC0
FFC0
0C00
0C00
0C00
0C00
ENDCHAR
STARTCHAR comma
ENCODING 44
SWIDTH 257 0
DWIDTH 6 0
BBX 3 7 2 -3
VVECTOR 4 21
SWIDTH1 0 -1157
DWIDTH1 0 -27
BITMAP 
40
E0
E0
60
20
20
40
ENDCHAR
STARTCHAR hyphen
ENCODING 45
SWIDTH 343 0
DWIDTH 8 0
BBX 6 2 1 6
VVECTOR 4 21
SWIDTH1 0 -1157
DWIDTH1 0 -27
BITMAP 
FC
FC
ENDCHAR
STARTCHAR period
ENCODING 46
SWIDTH 257 0
DWIDTH 6 0
BBX 3 4 2 0
VVECTOR 4 21
SWIDTH1 0 -1157
DWIDTH1 0 -27
BITMAP 
40
E0
E0
40
ENDCHAR
STARTCHAR slash
ENCODING 47
SWIDTH 300 0
DWIDTH 7 0
BBX 7 18 0 -1
VVECTOR 4 21
SWIDTH1 0 -1157
DWIDTH1 0 -27
BITMAP 
06
06
06
0C
0C
0C
18
18
18
30
30
30
60
60
60
C0
C0
C0
ENDCHAR
STARTCHAR zero
ENCODING 48
SWIDTH 514 0
DWIDTH 12 0
BBX 10 16 1 0
VVECTOR 6 21
SWIDTH1 0 -1157
DWIDTH1 0 -27
BITMAP 
1E00
3300
6180
6180
C0C0
C0C0
C0C0
C0C0
C0C0
C0C0
C0C0
C0C0
6180
6180
3300
1E00
ENDCHAR
STARTCHAR one
ENCODING 49
SWIDTH 514 0
DWIDTH 12 0
BBX 6 16 3 0
VVECTOR 6 21
SWIDTH1 0 -1157
DWIDTH1 0 -27
BITMAP 
10
30
70
F0
30
30
30
30
30
30
30
30
30
30
78
FC
ENDCHAR
STARTCHAR two
ENCODING 50
SWIDTH 514 0
DWIDTH 12 0
BBX 10 16 1 0
VVECTOR 6 21
SWIDTH1 0 -1157
DWIDTH1 0 -27
BITMAP 
1E00
3F00
6380
4180
0180
0180
0180
0300
0300
0600
0C00
0800
1040
20C0
7F80
FF80
ENDCHAR
STARTCHAR three
ENCODING 51
SWIDTH 514 0
DWIDTH 12 0
BBX 10 16 1 0
VVECTOR 6 21
SWIDTH1 0 -1157
DWIDTH1 0 -27
BITMAP 
1E00
3F00
6380
0180
0180
0300
0F00
0380
0180
00C0
00C0
00C0
01C0
E380
F700
3E00
ENDCHAR
STARTCHAR four
ENCODING 52
SWIDTH 514 0
DWIDTH 12 0
BBX 11 16 1 0
VVECTOR 7 21
SWIDTH1 0 -1157
DWIDTH1 0 -27
BITMAP 
0380
0380
0780
0D80
1980
1180
3180
6180
C180
C180
FFE0
FFE0
0180
0180
0180
0180
ENDCHAR
STARTCHAR five
ENCODING 53
SWIDTH 514 0
DWIDTH 12 0
BBX 10 16 1 0
VVECTOR 6 21
SWIDTH1 0 -1157
DWIDTH1 0 -27
BITMAP 
3F80
3F00
2000
4000
4000
7E00
7F80
0380
01C0
00C0
00C0
00C0
00C0
E180
F380
3E00
ENDCHAR
STARTCHAR six
ENCODING 54
SWIDTH 514 0
DWIDTH 12 0
BBX 10 16 1 0
VVECTOR 6 21
SWIDTH1 0 -1157
DWIDTH1 0 -27
BITMAP 
0300
0C00
1800
3000
6000
6000
EE00
F380
E180
C0C0
C0C0
C0C0
C0C0
6180
7380
1E00
ENDCHAR
STARTCHAR seven
ENCODING 55
SWIDTH 514 0
DWIDTH 12 0
BBX 10 16 1 0
VVECTOR 6 21
SWIDTH1 0 -1157
DWIDTH1 0 -27
BITMAP 
7FC0
7F80
C180
8180
0300
0300
0200
0600
0600
0C00
0C00
0C00
1800
1800
3000
3000
ENDCHAR
STARTCHAR eight
ENCODING 56
SWIDTH 514 0
DWIDTH 12 0
BBX 10 16 1 0
VVECTOR 6 21
SWIDTH1 0 -1157
DWIDTH1 0 -27
BITMAP 
3E00
6300
C180
C180
E180
7180
3B00
3F00
6F80
4380
C1C0
C0C0
C0C0
6180
7380
1E00
ENDCHAR
STARTCHAR nine
ENCODING 57
SWIDTH 514 0
DWIDTH 12 0
BBX 10 16 1 0
VVECTOR 6 21
SWIDTH1 0 -1157
DWIDTH1 0 -27
BITMAP 
1E00
7380
6180
C0C0
C0C0
C0C0
C0C0
61C0
73C0
1DC0
0180
0180
0300
0600
0C00
3000
ENDCHAR
STARTCHAR colon
ENCODING 58
SWIDTH 300 0
DWIDTH 7 0
BBX 3 11 2 0
VVECTOR 4 21
SWIDTH1 0 -1157
DWIDTH1 0 -27
BITMAP 
40
E0
E0
40
00
00
00
40
E0
E0
40
ENDCHAR
STARTCHAR semicolon
ENCODING 59
SWIDTH 300 0
DWIDTH 7 0
BBX 3 14 2 -3
VVECTOR 4 21
SWIDTH1 0 -1157
DWIDTH1 0 -27
BITMAP 
40
E0
E0
40
00
00
00
40
E0
E0
60
20
20
40
ENDCHAR
STARTCHAR less
ENCODING 60
SWIDTH 600 0
DWIDTH 14 0
BBX 11 13 1 1
VVECTOR 6 21
SWIDTH1 0 -1157
DWIDTH1 0 -27
BITMAP 
0060
01C0
0380
0E00
1C00
7000
E000
7000
1C00
0E00
0380
01C0
0060
ENDCHAR
STARTCHAR equal
ENCODING 61
SWIDTH 600 0
DWIDTH 14 0
BBX 12 7 1 4
VVECTOR 7 21
SWIDTH1 0 -1157
DWIDTH1 0 -27
BITMAP 
FFF0
FFF0
0000
0000
0000
FFF0
FFF0
ENDCHAR
STARTCHAR greater
ENCODING 62
SWIDTH 600 0
DWIDTH 14 0
BBX 11 13 2 1
VVECTOR 8 21
SWIDTH1 0 -1157
DWIDTH1 0 -27
BITMAP 
C000
7000
3800
0E00
0700
01C0
00E0
01C0
0700
0E00
3800
7000
C000
ENDCHAR
STARTCHAR question
ENCODING 63
SWIDTH 471 0
DWIDTH 11 0
BBX 9 17 1 0
VVECTOR 6 21
SWIDTH1 0 -1157
DWIDTH1 0 -27
BITMAP 
3E00
6700
C380
E380
E380
4300
0300
0600
0C00
0800
0800
0800
0000
0800
1C00
1C00
0800
ENDCHAR
STARTCHAR at
ENCODING 64
SWIDTH 986 0
DWIDTH 23 0
BBX 21 17 1 -3
VVECTOR 12 21
SWIDTH1 0 -1157
DWIDTH1 0 -27
BITMAP 
01FC00
070700
1C01C0
300060
60F830
618E30
C30618
C60618
C60C18
C60C30
C31E70
61F7C0
600000
300000
1C0000
070600
01F800
ENDCHAR
STARTCHAR A
ENCODING 65
SWIDTH 729 0
DWIDTH 17 0
BBX 16 16 0 0
VVECTOR 8 21
SWIDTH1 0 -1157
DWIDTH1 0 -27
BITMAP 
0180
0180
03C0
02C0
0660
0460
0460
0C30
0830
0830
1FF8
1018
300C
200C
200C
F83F
ENDCHAR
STARTCHAR B
ENCODING 66
SWIDTH 686 0
DWIDTH 16 0
BBX 14 16 1 0
VVECTOR 8 21
SWIDTH1 0 -1157
DWIDTH1 0 -27
BITMAP 
FFE0
3030
3018
3018
3018
3018
3030
3FF0
3038
3018
300C
300C
300C
3018
3038
FFE0
ENDCHAR
STARTCHAR C
ENCODING 67
SWIDTH 686 0
DWIDTH 16 0
BBX 13 16 1 0
VVECTOR 7 21
SWIDTH1 0 -1157
DWIDTH1 0 -27
BITMAP 
07C8
1C78
3018
6008
6008
C000
C000
C000
C000
C000
C000
6000
6008
3010
1C60
0780
ENDCHAR
STARTCHAR D
ENCODING 68
SWIDTH 729 0
DWIDTH 17 0
BBX 15 16 1 0
VVECTOR 9 21
SWIDTH1 0 -1157
DWIDTH1 0 -27
BITMAP 
FFC0
3070
3018
300C
300C
3006
3006
3006
3006
3006
3006
300C
300C
3018
3070
FFC0
ENDCHAR
STARTCHAR E
ENCODING 69
SWIDTH 643 0
DWIDTH 15 0
BBX 12 16 1 0
VVECTOR 7 21
SWIDTH1 0 -1157
DWIDTH1 0 -27
BITMAP 
FFE0
3060
3020
3000
3000
3080
3080
3F80
3080
3080
3000
3000
3000
3010
3030
FFE0
ENDCHAR
STARTCHAR F
ENCODING 70
SWIDTH 557 0
DWIDTH 13 0
BBX 11 16 1 0
VVECTOR 7 21
SWIDTH1 0 -1157
DWIDTH1 0 -27
BITMAP 
FFE0
3060
3020
3000
3000
3080
3080
3F80
3080
3080
3000
3000
3000
3000
3000
FC00
ENDCHAR
STARTCHAR G
ENCODING 71
SWIDTH 729 0
DWIDTH 17 0
BBX 16 16 1 0
VVECTOR 10 21
SWIDTH1 0 -1157
DWIDTH1 0 -27
BITMAP 
07C8
1C38
3018
6008
6008
C000
C000
C000
C03F
C00C
C00C
600C
600C
3008
1C30
07C0
ENDCHAR
STARTCHAR H
ENCODING 72
SWIDTH 729 0
DWIDTH 17 0
BBX 15 16 1 0
VVECTOR 9 21
SWIDTH1 0 -1157
DWIDTH1 0 -27
BITMAP 
FC7E
3018
3018
3018
3018
3018
3018
3FF8
3018
3018
3018
3018
3018
3018
3018
FC7E
ENDCHAR
STARTCHAR I
ENCODING 73
SWIDTH 343 0
DWIDTH 8 0
BBX 6 16 1 0
VVECTOR 4 21
SWIDTH1 0 -1157
DWIDTH1 0 -27
BITMAP 
FC
30
30
30
30
30
30
30
30
30
30
30
30
30
30
FC
ENDCHAR
STARTCHAR J
ENCODING 74
SWIDTH 386 0
DWIDTH 9 0
BBX 8 16 0 0
VVECTOR 4 21
SWIDTH1 0 -1157
DWIDTH1 0 -27
BITMAP 
3F
0C
0C
0C
0C
0C
0C
0C
0C
0C
0C
0C
0C
CC
CC
78
ENDCHAR
STARTCHAR K
ENCODING 75
SWIDTH 729 0
DWIDTH 17 0
BBX 16 16 1 0
VVECTOR 10 21
SWIDTH1 0 -1157
DWIDTH1 0 -27
BITMAP 
FC7C
3030
3060
30C0
3180
3300
3700
3F00
3980
30C0
30C0
3060
3030
3030
3018
FC7F
ENDCHAR
STARTCHAR L
ENCODING 76
SWIDTH 643 0
DWIDTH 15 0
BBX 12 16 1 0
VVECTOR 7 21
SWIDTH1 0 -1157
DWIDTH1 0 -27
BITMAP 
FE00
3000
3000
3000
3000
3000
3000
3000
3000
3000
3000
3000
3000
3010
3030
FFE0
ENDCHAR
STARTCHAR M
ENCODING 77
SWIDTH 900 0
DWIDTH 21 0
BBX 19 16 1 0
VVECTOR 11 21
SWIDTH1 0 -1157
DWIDTH1 0 -27
BITMAP 
F803E0
380380
3C0380
2C0780
2C0580
260580
260D80
230980
230980
231980
219180
21B180
20E180
20E180
20E180
F843E0
ENDCHAR
STARTCHAR N
ENCODING 78
SWIDTH 729 0
DWIDTH 17 0
BBX 15 16 1 0
VVECTOR 9 21
SWIDTH1 0 -1157
DWIDTH1 0 -27
BITMAP 
F03E
3008
3808
3C08
2C08
2608
2308
2308
2188
20C8
20C8
2068
2038
2038
2018
F808
ENDCHAR
STARTCHAR O
ENCODING 79
SWIDTH 729 0
DWIDTH 17 0
BBX 15 16 1 0
VVECTOR 9 21
SWIDTH1 0 -1157
DWIDTH1 0 -27
BITMAP 
07C0
1C70
3018
600C
600C
C006
C006
C006
C006
C006
C006
600C
600C
3018
1C70
07C0
ENDCHAR
STARTCHAR P
ENCODING 80
SWIDTH 557 0
DWIDTH 13 0
BBX 12 16 1 0
VVECTOR 8 21
SWIDTH1 0 -1157
DWIDTH1 0 -27
BITMAP 
FF80
30E0
3060
3030
3030
3030
3060
30E0
3F80
3000
3000
3000
3000
3000
3000
FC00
ENDCHAR
STARTCHAR Q
ENCODING 81
SWIDTH 729 0
DWIDTH 17 0
BBX 15 19 1 -3
VVECTOR 9 21
SWIDTH1 0 -1157
DWIDTH1 0 -27
BITMAP 
07C0
1C70
3018
600C
600C
C006
C006
C006
C006
C006
C006
600C
600C
3018
1C70
07C0
03C0
01E0
007C
ENDCHAR
STARTCHAR R
ENCODING 82
SWIDTH 686 0
DWIDTH 16 0
BBX 15 16 1 0
VVECTOR 9 21
SWIDTH1 0 -1157
DWIDTH1 0 -27
BITMAP 
FFC0
3070
3030
3018
3018
3018
3030
3070
3FC0
30C0
30E0
3060
3070
3030
3038
FC1E
ENDCHAR
STARTCHAR S
ENCODING 83
SWIDTH 557 0
DWIDTH 13 0
BBX 11 16 1 0
VVECTOR 7 21
SWIDTH1 0 -1157
DWIDTH1 0 -27
BITMAP 
3F40
61C0
C0C0
C040
E040
7000
7C00
1F00
07C0
01C0
00E0
8060
8060
C0C0
E1C0
BF00
ENDCHAR
STARTCHAR T
ENCODING 84
SWIDTH 600 0
DWIDTH 14 0
BBX 14 16 0 0
VVECTOR 7 21
SWIDTH1 0 -1157
DWIDTH1 0 -27
BITMAP 
FFFC
C30C
8304
8304
0300
0300
0300
0300
0300
0300
0300
0300
0300
0300
0300
0FC0
ENDCHAR
STARTCHAR U
ENCODING 85
SWIDTH 729 0
DWIDTH 17 0
BBX 15 16 1 0
VVECTOR 9 21
SWIDTH1 0 -1157
DWIDTH1 0 -27
BITMAP 
FC3E
3008
3008
3008
3008
3008
3008
3008
3008
3008
3008
3008
3008
1810
1C30
07C0
ENDCHAR
STARTCHAR V
ENCODING 86
SWIDTH 729 0
DWIDTH 17 0
BBX 17 16 0 0
VVECTOR 9 21
SWIDTH1 0 -1157
DWIDTH1 0 -27
BITMAP 
FC1F80
600E00
300400
300400
180800
180800
0C1000
0C1000
061000
062000
032000
034000
01C000
01C000
008000
008000
ENDCHAR
STARTCHAR W
ENCODING 87
SWIDTH 943 0
DWIDTH 22 0
BBX 22 16 0 0
VVECTOR 11 21
SWIDTH1 0 -1157
DWIDTH1 0 -27
BITMAP 
F9FDFC
707070
303020
303020
303020
185840
185840
185840
0C8C80
0C8C80
0C8C80
070700
070700
030700
020200
020200
ENDCHAR
STARTCHAR X
ENCODING 88
SWIDTH 729 0
DWIDTH 17 0
BBX 16 16 0 0
VVECTOR 8 21
SWIDTH1 0 -1157
DWIDTH1 0 -27
BITMAP 
FE3E
3808
1810
0C10
0620
0340
0180
01C0
01C0
0260
0430
0430
0818
100C
380C
FE3F
ENDCHAR
STARTCHAR Y
ENCODING 89
SWIDTH 771 0
DWIDTH 18 0
BBX 18 16 0 0
VVECTOR 9 21
SWIDTH1 0 -1157
DWIDTH1 0 -27
BITMAP 
FE0FC0
380300
1C0600
0C0400
0E0C00
071800
031000
03B000
01E000
00C000
00C000
00C000
00C000
00C000
00C000
03F000
ENDCHAR
STARTCHAR Z
ENCODING 90
SWIDTH 643 0
DWIDTH 15 0
BBX 13 16 1 0
VVECTOR 8 21
SWIDTH1 0 -1157
DWIDTH1 0 -27
BITMAP 
7FF8
6070
4060
00E0
01C0
0180
0380
0700
0600
0E00
1C00
1800
3800
7008
6018
FFF8
ENDCHAR
STARTCHAR bracketleft
ENCODING 91
SWIDTH 343 0
DWIDTH 8 0
BBX 5 22 2 -5
VVECTOR 5 21
SWIDTH1 0 -1157
DWIDTH1 0 -27
BITMAP 
F8
E0
C0
C0
C0
C0
C0
C0
C0
C0
C0
C0
C0
C0
C0
C0
C0
C0
C0
C0
E0
F8
ENDCHAR
STARTCHAR backslash
ENCODING 92
SWIDTH 300 0
DWIDTH 7 0
BBX 7 17 0 0
VVECTOR 4 21
SWIDTH1 0 -1157
DWIDTH1 0 -27
BITMAP 
C0
C0
C0
60
60
60
30
30
30
18
18
18
0C
0C
0C
06
06
ENDCHAR
STARTCHAR bracketright
ENCODING 93
SWIDTH 343 0
DWIDTH 8 0
BBX 5 22 1 -5
VVECTOR 3 21
SWIDTH1 0 -1157
DWIDTH1 0 -27
BITMAP 
F8
38
18
18
18
18
18
18
18
18
18
18
18
18
18
18
18
18
18
18
38
F8
ENDCHAR
STARTCHAR asciicircum
ENCODING 94
SWIDTH 343 0
DWIDTH 8 0
BBX 5 2 1 18
VVECTOR 3 21
SWIDTH1 0 -1157
DWIDTH1 0 -27
BITMAP 
70
D8
ENDCHAR
STARTCHAR underscore
ENCODING 95
SWIDTH 514 0
DWIDTH 12 0
BBX 12 2 0 -4
VVECTOR 6 21
SWIDTH1 0 -1157
DWIDTH1 0 -27
BITMAP 
FFF0
FFF0
ENDCHAR
STARTCHAR grave
ENCODING 96
SWIDTH 343 0
DWIDTH 8 0
BBX 4 3 2 13
VVECTOR 4 21
SWIDTH1 0 -1157
DWIDTH1 0 -27
BITMAP 
C0
60
10
ENDCHAR
STARTCHAR a
ENCODING 97
SWIDTH 471 0
DWIDTH 11 0
BBX 10 11 1 0
VVECTOR 7 21
SWIDTH1 0 -1157
DWIDTH1 0 -27
BITMAP 
3E00
6300
6300
0300
0F00
3B00
6300
C300
C740
EFC0
7980
ENDCHAR
STARTCHAR b
ENCODING 98
SWIDTH 514 0
DWIDTH 12 0
BBX 10 17 1 0
VVECTOR 6 21
SWIDTH1 0 -1157
DWIDTH1 0 -27
BITMAP 
2000
E000
6000
6000
6000
6000
6F00
7180
60C0
60C0
60C0
60C0
60C0
60C0
60C0
3180
1E00
ENDCHAR
STARTCHAR c
ENCODING 99
SWIDTH 471 0
DWIDTH 11 0
BBX 9 11 1 0
VVECTOR 6 21
SWIDTH1 0 -1157
DWIDTH1 0 -27
BITMAP 
1F00
6180
4180
C000
C000
C000
C000
C000
6080
3180
1F00
ENDCHAR
STARTCHAR d
ENCODING 100
SWIDTH 514 0
DWIDTH 12 0
BBX 10 17 1 0
VVECTOR 6 21
SWIDTH1 0 -1157
DWIDTH1 0 -27
BITMAP 
0080
0380
0180
0180
0180
0180
3D80
6380
C180
C180
C180
C180
C180
C180
C180
63C0
3D00
ENDCHAR
STARTCHAR e
ENCODING 101
SWIDTH 471 0
DWIDTH 11 0
BBX 9 11 1 0
VVECTOR 6 21
SWIDTH1 0 -1157
DWIDTH1 0 -27
BITMAP 
3E00
6300
C180
C180
FF80
C000
C000
C000
6180
7300
1E00
ENDCHAR
STARTCHAR f
ENCODING 102
SWIDTH 300 0
DWIDTH 7 0
BBX 6 17 1 0
VVECTOR 5 21
SWIDTH1 0 -1157
DWIDTH1 0 -27
BITMAP 
38
6C
6C
60
60
60
F8
60
60
60
60
60
60
60
60
60
F8
ENDCHAR
STARTCHAR g
ENCODING 103
SWIDTH 514 0
DWIDTH 12 0
BBX 12 17 0 -6
VVECTOR 6 21
SWIDTH1 0 -1157
DWIDTH1 0 -27
BITMAP 
1E00
3380
61E0
6180
6180
6180
3300
3E00
6000
7000
3F80
10E0
6070
C030
C030
E060
7F80
ENDCHAR
STARTCHAR h
ENCODING 104
SWIDTH 514 0
DWIDTH 12 0
BBX 10 17 1 0
VVECTOR 6 21
SWIDTH1 0 -1157
DWIDTH1 0 -27
BITMAP 
2000
E000
6000
6000
6000
6000
6700
6B80
7180
6180
6180
6180
6180
6180
6180
6180
F3C0
ENDCHAR
STARTCHAR i
ENCODING 105
SWIDTH 257 0
DWIDTH 6 0
BBX 4 17 1 0
VVECTOR 3 21
SWIDTH1 0 -1157
DWIDTH1 0 -27
BITMAP 
60
60
00
00
00
00
20
E0
60
60
60
60
60
60
60
60
F0
ENDCHAR
STARTCHAR j
ENCODING 106
SWIDTH 257 0
DWIDTH 6 0
BBX 5 22 0 -5
VVECTOR 2 21
SWIDTH1 0 -1157
DWIDTH1 0 -27
BITMAP 
30
30
00
00
00
00
08
38
18
18
18
18
18
18
18
18
18
18
18
98
D8
70
ENDCHAR
STARTCHAR k
ENCODING 107
SWIDTH 514 0
DWIDTH 12 0
BBX 11 17 1 0
VVECTOR 7 21
SWIDTH1 0 -1157
DWIDTH1 0 -27
BITMAP 
2000
E000
6000
6000
6000
6000
6780
6200
6400
6800
7800
7800
6C00
6600
6300
6180
F3E0
ENDCHAR
STARTCHAR l
ENCODING 108
SWIDTH 257 0
DWIDTH 6 0
BBX 4 17 1 0
VVECTOR 3 21
SWIDTH1 0 -1157
DWIDTH1 0 -27
BITMAP 
20
E0
60
60
60
60
60
60
60
60
60
60
60
60
60
60
F0
ENDCHAR
STARTCHAR m
ENCODING 109
SWIDTH 771 0
DWIDTH 18 0
BBX 16 11 1 0
VVECTOR 9 21
SWIDTH1 0 -1157
DWIDTH1 0 -27
BITMAP 
271C
EBAE
71C6
6186
6186
6186
6186
6186
6186
6186
F3CF
ENDCHAR
STARTCHAR n
ENCODING 110
SWIDTH 514 0
DWIDTH 12 0
BBX 10 11 1 0
VVECTOR 6 21
SWIDTH1 0 -1157
DWIDTH1 0 -27
BITMAP 
2700
EB80
7180
6180
6180
6180
6180
6180
6180
6180
F3C0
ENDCHAR
STARTCHAR o
ENCODING 111
SWIDTH 514 0
DWIDTH 12 0
BBX 10 11 1 0
VVECTOR 6 21
SWIDTH1 0 -1157
DWIDTH1 0 -27
BITMAP 
0E00
3300
6180
C0C0
C0C0
C0C0
C0C0
C0C0
6180
3300
1C00
ENDCHAR
STARTCHAR p
ENCODING 112
SWIDTH 514 0
DWIDTH 12 0
BBX 10 16 1 -5
VVECTOR 6 21
SWIDTH1 0 -1157
DWIDTH1 0 -27
BITMAP 
3F00
F180
60C0
60C0
60C0
60C0
60C0
60C0
60C0
7180
6E00
6000
6000
6000
6000
F000
ENDCHAR
STARTCHAR q
ENCODING 113
SWIDTH 514 0
DWIDTH 12 0
BBX 10 16 1 -5
VVECTOR 6 21
SWIDTH1 0 -1157
DWIDTH1 0 -27
BITMAP 
3E80
6380
C180
C180
C180
C180
C180
C180
C180
6380
3D80
0180
0180
0180
0180
03C0
ENDCHAR
STARTCHAR r
ENCODING 114
SWIDTH 343 0
DWIDTH 8 0
BBX 7 11 1 0
VVECTOR 5 21
SWIDTH1 0 -1157
DWIDTH1 0 -27
BITMAP 
2E
F6
60
60
60
60
60
60
60
60
F0
ENDCHAR
STARTCHAR s
ENCODING 115
SWIDTH 429 0
DWIDTH 10 0
BBX 8 11 1 0
VVECTOR 5 21
SWIDTH1 0 -1157
DWIDTH1 0 -27
BITMAP 
3E
66
C2
E0
78
1E
07
83
C3
E6
9C
ENDCHAR
STARTCHAR t
ENCODING 116
SWIDTH 300 0
DWIDTH 7 0
BBX 5 15 1 0
VVECTOR 4 21
SWIDTH1 0 -1157
DWIDTH1 0 -27
BITMAP 
20
20
60
60
F8
60
60
60
60
60
60
60
60
68
30
ENDCHAR
STARTCHAR u
ENCODING 117
SWIDTH 514 0
DWIDTH 12 0
BBX 10 11 1 0
VVECTOR 6 21
SWIDTH1 0 -1157
DWIDTH1 0 -27
BITMAP 
E380
6180
6180
6180
6180
6180
6180
6180
6380
35C0
1900
ENDCHAR
STARTCHAR v
ENCODING 118
SWIDTH 471 0
DWIDTH 11 0
BBX 11 11 0 0
VVECTOR 6 21
SWIDTH1 0 -1157
DWIDTH1 0 -27
BITMAP 
F0E0
6040
6040
3080
3080
1900
1900
0E00
0E00
0400
0400
ENDCHAR
STARTCHAR w
ENCODING 119
SWIDTH 729 0
DWIDTH 17 0
BBX 17 11 0 0
VVECTOR 9 21
SWIDTH1 0 -1157
DWIDTH1 0 -27
BITMAP 
F3C380
618100
618100
30C200
30C200
196400
196400
0E3800
0E3800
041000
041000
ENDCHAR
STARTCHAR x
ENCODING 120
SWIDTH 514 0
DWIDTH 12 0
BBX 10 11 1 0
VVECTOR 6 21
SWIDTH1 0 -1157
DWIDTH1 0 -27
BITMAP 
F3C0
6100
3200
3A00
1C00
0C00
0E00
1600
2300
6180
F3C0
ENDCHAR
STARTCHAR y
ENCODING 121
SWIDTH 471 0
DWIDTH 11 0
BBX 11 16 0 -5
VVECTOR 6 21
SWIDTH1 0 -1157
DWIDTH1 0 -27
BITMAP 
F0E0
6040
6040
3080
3080
1900
1900
0E00
0E00
0400
0400
0800
0800
1000
D000
E000
ENDCHAR
STARTCHAR z
ENCODING 122
SWIDTH 471 0
DWIDTH 11 0
BBX 9 11 1 0
VVECTOR 6 21
SWIDTH1 0 -1157
DWIDTH1 0 -27
BITMAP 
7F80
4300
4600
0600
0C00
1800
1800
3000
6080
6080
FF80
ENDCHAR
STARTCHAR braceleft
ENCODING 123
SWIDTH 429 0
DWIDTH 10 0
BBX 5 22 3 -5
VVECTOR 6 21
SWIDTH1 0 -1157
DWIDTH1 0 -27
BITMAP 
08
30
60
60
60
60
60
60
60
60
60
C0
60
60
60
60
60
60
60
60
20
10
ENDCHAR
STARTCHAR bar
ENCODING 124
SWIDTH 257 0
DWIDTH 6 0
BBX 2 17 2 0
VVECTOR 3 21
SWIDTH1 0 -1157
DWIDTH1 0 -27
BITMAP 
C0
C0
C0
C0
C0
C0
C0
C0
C0
C0
C0
C0
C0
C0
C0
C0
C0
ENDCHAR
STARTCHAR braceright
ENCODING 125
SWIDTH 429 0
DWIDTH 10 0
BBX 4 22 3 -5
VVECTOR 5 21
SWIDTH1 0 -1157
DWIDTH1 0 -27
BITMAP 
80
40
60
60
60
60
60
60
60
60
60
30
60
60
60
60
60
60
60
60
40
80
ENDCHAR
STARTCHAR asciitilde
ENCODING 126
SWIDTH 343 0
DWIDTH 8 0
BBX 8 3 0 18
VVECTOR 4 21
SWIDTH1 0 -1157
DWIDTH1 0 -27
BITMAP 
71
FF
8E
ENDCHAR
STARTCHAR house
ENCODING 127
SWIDTH 686 0
DWIDTH 16 0
BBX 12 15 2 0
VVECTOR 8 21
SWIDTH1 0 -1157
DWIDTH1 0 -27
BITMAP 
0600
0F00
1980
30C0
6060
C030
8010
8010
8010
8010
8010
8010
8010
8010
FFF0
ENDCHAR
STARTCHAR Ccedilla
ENCODING 128
SWIDTH 686 0
DWIDTH 16 0
BBX 14 21 1 -5
VVECTOR 8 21
SWIDTH1 0 -1157
DWIDTH1 0 -27
BITMAP 
07C8
1C38
3018
6008
6008
C000
C000
C000
C000
C000
C000
6000
6004
3008
1C30
07C0
0100
0200
0380
08C0
0780
ENDCHAR
STARTCHAR udieresis
ENCODING 129
SWIDTH 514 0
DWIDTH 12 0
BBX 10 15 1 0
VVECTOR 6 21
SWIDTH1 0 -1157
DWIDTH1 0 -27
BITMAP 
3300
3300
0000
0000
E380
6180
6180
6180
6180
6180
6180
6180
6380
35C0
1900
ENDCHAR
STARTCHAR eacute
ENCODING 130
SWIDTH 471 0
DWIDTH 11 0
BBX 9 16 1 0
VVECTOR 6 21
SWIDTH1 0 -1157
DWIDTH1 0 -27
BITMAP 
0600
0C00
1000
0000
0000
3E00
6300
C180
C180
FF80
C000
C000
C000
6180
7300
1E00
ENDCHAR
STARTCHAR acircumflex
ENCODING 131
SWIDTH 471 0
DWIDTH 11 0
BBX 10 17 1 0
VVECTOR 7 21
SWIDTH1 0 -1157
DWIDTH1 0 -27
BITMAP 
0800
1C00
3600
4100
0000
0000
3E00
6300
6300
0300
0F00
3B00
6300
C300
C740
EFC0
7980
ENDCHAR
STARTCHAR adieresis
ENCODING 132
SWIDTH 471 0
DWIDTH 11 0
BBX 10 15 1 0
VVECTOR 7 21
SWIDTH1 0 -1157
DWIDTH1 0 -27
BITMAP 
3300
3300
0000
0000
3E00
6300
6300
0300
0F00
3B00
6300
C300
C740
EFC0
7980
ENDCHAR
STARTCHAR agrave
ENCODING 133
SWIDTH 471 0
DWIDTH 11 0
BBX 10 16 1 0
VVECTOR 7 21
SWIDTH1 0 -1157
DWIDTH1 0 -27
BITMAP 
3000
1800
0400
0000
0000
3E00
6300
6300
0300
0F00
3B00
6300
C300
C740
EFC0
7980
ENDCHAR
STARTCHAR aring
ENCODING 134
SWIDTH 471 0
DWIDTH 11 0
BBX 10 17 1 0
VVECTOR 7 21
SWIDTH1 0 -1157
DWIDTH1 0 -27
BITMAP 
1C00
3600
2200
3600
1C00
0000
3E00
6300
6300
0300
0F00
3B00
6300
C300
C740
EFC0
7980
ENDCHAR
STARTCHAR ccedilla
ENCODING 135
SWIDTH 471 0
DWIDTH 11 0
BBX 9 16 1 -5
VVECTOR 6 21
SWIDTH1 0 -1157
DWIDTH1 0 -27
BITMAP 
1F00
6180
4180
C000
C000
C000
C000
C000
6080
3180
1F00
0800
1000
1C00
4600
3C00
ENDCHAR
STARTCHAR ecircumflex
ENCODING 136
SWIDTH 471 0
DWIDTH 11 0
BBX 9 17 1 0
VVECTOR 6 21
SWIDTH1 0 -1157
DWIDTH1 0 -27
BITMAP 
0C00
1E00
3300
6180
0000
0000
3E00
6300
C180
C180
FF80
C000
C000
C000
6180
7300
1E00
ENDCHAR
STARTCHAR edieresis
ENCODING 137
SWIDTH 471 0
DWIDTH 11 0
BBX 9 15 1 0
VVECTOR 6 21
SWIDTH1 0 -1157
DWIDTH1 0 -27
BITMAP 
3300
3300
0000
0000
3E00
6300
C180
C180
FF80
C000
C000
C000
6180
7300
1E00
ENDCHAR
STARTCHAR egrave
ENCODING 138
SWIDTH 471 0
DWIDTH 11 0
BBX 9 16 1 0
VVECTOR 6 21
SWIDTH1 0 -1157
DWIDTH1 0 -27
BITMAP 
1800
0C00
0200
0000
0000
3E00
6300
C180
C180
FF80
C000
C000
C000
6180
7300
1E00
ENDCHAR
STARTCHAR idieresis
ENCODING 139
SWIDTH 300 0
DWIDTH 7 0
BBX 6 15 1 0
VVECTOR 5 21
SWIDTH1 0 -1157
DWIDTH1 0 -27
BITMAP 
CC
CC
00
00
10
70
30
30
30
30
30
30
30
30
78
ENDCHAR
STARTCHAR icircumflex
ENCODING 140
SWIDTH 257 0
DWIDTH 6 0
BBX 6 16 0 0
VVECTOR 3 21
SWIDTH1 0 -1157
DWIDTH1 0 -27
BITMAP 
30
78
CC
00
00
10
70
30
30
30
30
30
30
30
30
78
ENDCHAR
STARTCHAR igrave
ENCODING 141
SWIDTH 257 0
DWIDTH 6 0
BBX 4 16 1 0
VVECTOR 3 21
SWIDTH1 0 -1157
DWIDTH1 0 -27
BITMAP 
C0
60
10
00
00
20
E0
60
60
60
60
60
60
60
60
F0
ENDCHAR
STARTCHAR Adieresis
ENCODING 142
SWIDTH 729 0
DWIDTH 17 0
BBX 17 20 0 0
VVECTOR 9 21
SWIDTH1 0 -1157
DWIDTH1 0 -27
BITMAP 
063000
063000
000000
000000
008000
008000
01C000
01C000
01E000
026000
027000
043000
043800
041800
0FFC00
080C00
100E00
100600
380700
FC1F80
ENDCHAR
STARTCHAR Aring
ENCODING 143
SWIDTH 729 0
DWIDTH 17 0
BBX 17 21 0 0
VVECTOR 9 21
SWIDTH1 0 -1157
DWIDTH1 0 -27
BITMAP 
01C000
036000
022000
036000
01C000
008000
008000
01C000
01C000
01E000
026000
027000
043000
043800
041800
0FFC00
080C00
100E00
100600
380700
FC1F80
ENDCHAR
STARTCHAR Eacute
ENCODING 144
SWIDTH 643 0
DWIDTH 15 0
BBX 12 21 1 0
VVECTOR 7 21
SWIDTH1 0 -1157
DWIDTH1 0 -27
BITMAP 
0300
0600
0800
0000
0000
FFF0
3030
3010
3000
3000
3080
3080
3F80
3080
3080
3000
3000
3000
3010
3030
FFE0
ENDCHAR
STARTCHAR ae
ENCODING 145
SWIDTH 729 0
DWIDTH 17 0
BBX 15 11 1 0
VVECTOR 9 21
SWIDTH1 0 -1157
DWIDTH1 0 -27
BITMAP 
3EF8
678C
6306
0306
0FFE
3B00
6300
C300
C786
EDCC
7878
ENDCHAR
STARTCHAR AE
ENCODING 146
SWIDTH 943 0
DWIDTH 22 0
BBX 20 16 1 0
VVECTOR 11 21
SWIDTH1 0 -1157
DWIDTH1 0 -27
BITMAP 
03FFE0
00F060
01B020
013000
033000
023080
063080
043F80
0FF080
083080
183000
103000
303000
203010
603030
F8FFE0
ENDCHAR
STARTCHAR ocircumflex
ENCODING 147
SWIDTH 514 0
DWIDTH 12 0
BBX 10 17 1 0
VVECTOR 6 21
SWIDTH1 0 -1157
DWIDTH1 0 -27
BITMAP 
0400
0E00
1B00
3180
0000
0000
0E00
3300
6180
C0C0
C0C0
C0C0
C0C0
C0C0
6180
3300
1C00
ENDCHAR
STARTCHAR odieresis
ENCODING 148
SWIDTH 514 0
DWIDTH 12 0
BBX 10 15 1 0
VVECTOR 6 21
SWIDTH1 0 -1157
DWIDTH1 0 -27
BITMAP 
3300
3300
0000
0000
0E00
3300
6180
C0C0
C0C0
C0C0
C0C0
C0C0
6180
3300
1C00
ENDCHAR
STARTCHAR ograve
ENCODING 149
SWIDTH 514 0
DWIDTH 12 0
BBX 10 16 1 0
VVECTOR 6 21
SWIDTH1 0 -1157
DWIDTH1 0 -27
BITMAP 
1800
0C00
0200
0000
0000
0E00
3300
6180
C0C0
C0C0
C0C0
C0C0
C0C0
6180
3300
1C00
ENDCHAR
STARTCHAR ucircumflex
ENCODING 150
SWIDTH 514 0
DWIDTH 12 0
BBX 10 17 1 0
VVECTOR 6 21
SWIDTH1 0 -1157
DWIDTH1 0 -27
BITMAP 
0800
1C00
3600
6300
0000
0000
E380
6180
6180
6180
6180
6180
6180
6180
6380
35C0
1900
ENDCHAR
STARTCHAR ugrave
ENCODING 151
SWIDTH 514 0
DWIDTH 12 0
BBX 10 16 1 0
VVECTOR 6 21
SWIDTH1 0 -1157
DWIDTH1 0 -27
BITMAP 
1800
0C00
0200
0000
0000
E380
6180
6180
6180
6180
6180
6180
6180
6380
35C0
1900
ENDCHAR
STARTCHAR ydieresis
ENCODING 152
SWIDTH 471 0
DWIDTH 11 0
BBX 11 20 0 -5
VVECTOR 6 21
SWIDTH1 0 -1157
DWIDTH1 0 -27
BITMAP 
3180
3180
0000
0000
F0E0
6040
6040
3080
3080
1900
1900
0E00
0E00
0400
0400
0800
0800
1000
D000
E000
ENDCHAR
STARTCHAR Odieresis
ENCODING 153
SWIDTH 729 0
DWIDTH 17 0
BBX 15 20 1 0
VVECTOR 9 21
SWIDTH1 0 -1157
DWIDTH1 0 -27
BITMAP 
0C60
0C60
0000
0000
07C0
1C70
3018
600C
600C
C006
C006
C006
C006
C006
C006
600C
600C
3018
1C70
07C0
ENDCHAR
STARTCHAR Udieresis
ENCODING 154
SWIDTH 729 0
DWIDTH 17 0
BBX 15 20 1 0
VVECTOR 9 21
SWIDTH1 0 -1157
DWIDTH1 0 -27
BITMAP 
0C30
0C30
0000
0000
FC3E
3008
3008
3008
3008
3008
3008
3008
3008
3008
3008
3008
3008
1810
1C30
07C0
ENDCHAR
STARTCHAR oslash
ENCODING 155
SWIDTH 514 0
DWIDTH 12 0
BBX 11 11 1 0
VVECTOR 7 21
SWIDTH1 0 -1157
DWIDTH1 0 -27
BITMAP 
0E20
3340
6180
C1C0
C2C0
C4C0
C8C0
D0C0
6180
7300
9C00
ENDCHAR
STARTCHAR sterling
ENCODING 156
SWIDTH 514 0
DWIDTH 12 0
BBX 12 17 0 0
VVECTOR 6 21
SWIDTH1 0 -1157
DWIDTH1 0 -27
BITMAP 
0F80
18C0
30E0
3040
3000
3000
1800
7F00
1800
1800
1800
1800
3800
7800
9E10
BF30
61E0
ENDCHAR
STARTCHAR Oslash
ENCODING 157
SWIDTH 729 0
DWIDTH 17 0
BBX 15 16 1 0
VVECTOR 9 21
SWIDTH1 0 -1157
DWIDTH1 0 -27
BITMAP 
07C2
1C76
301C
601C
603C
C066
C0C6
C186
C306
C606
CC06
580C
700C
7818
DC70
87C0
ENDCHAR
STARTCHAR multiply
ENCODING 158
SWIDTH 600 0
DWIDTH 14 0
BBX 9 9 3 4
VVECTOR 8 21
SWIDTH1 0 -1157
DWIDTH1 0 -27
BITMAP 
4100
E380
7700
3E00
1C00
3E00
7700
E380
4100
ENDCHAR
STARTCHAR florin
ENCODING 159
SWIDTH 514 0
DWIDTH 12 0
BBX 12 21 0 -4
VVECTOR 6 21
SWIDTH1 0 -1157
DWIDTH1 0 -27
BITMAP 
0060
00B0
01B0
0180
0180
0300
0300
0FC0
0300
0300
0700
0600
0600
0600
0600
0E00
0C00
0C00
C800
D800
7000
ENDCHAR
STARTCHAR aacute
ENCODING 160
SWIDTH 471 0
DWIDTH 11 0
BBX 10 16 1 0
VVECTOR 7 21
SWIDTH1 0 -1157
DWIDTH1 0 -27
BITMAP 
0600
0C00
1000
0000
0000
3E00
6300
6300
0300
0F00
3B00
6300
C340
C7C0
EF80
7900
ENDCHAR
STARTCHAR iacute
ENCODING 161
SWIDTH 257 0
DWIDTH 6 0
BBX 4 16 1 0
VVECTOR 3 21
SWIDTH1 0 -1157
DWIDTH1 0 -27
BITMAP 
30
60
80
00
00
20
E0
60
60
60
60
60
60
60
60
F0
ENDCHAR
STARTCHAR oacute
ENCODING 162
SWIDTH 514 0
DWIDTH 12 0
BBX 10 16 1 0
VVECTOR 6 21
SWIDTH1 0 -1157
DWIDTH1 0 -27
BITMAP 
0600
0C00
1000
0000
0000
0E00
3300
6180
C0C0
C0C0
C0C0
C0C0
C0C0
6180
3300
1C00
ENDCHAR
STARTCHAR uacute
ENCODING 163
SWIDTH 514 0
DWIDTH 12 0
BBX 10 16 1 0
VVECTOR 6 21
SWIDTH1 0 -1157
DWIDTH1 0 -27
BITMAP 
0600
0C00
1000
0000
0000
E380
6180
6180
6180
6180
6180
6180
6180
6380
35C0
1900
ENDCHAR
STARTCHAR ntilde
ENCODING 164
SWIDTH 514 0
DWIDTH 12 0
BBX 10 16 1 0
VVECTOR 6 21
SWIDTH1 0 -1157
DWIDTH1 0 -27
BITMAP 
3880
7F00
4700
0000
0000
2700
EB80
7180
6180
6180
6180
6180
6180
6180
6180
F3C0
ENDCHAR
STARTCHAR Ntilde
ENCODING 165
SWIDTH 729 0
DWIDTH 17 0
BBX 15 21 1 0
VVECTOR 9 21
SWIDTH1 0 -1157
DWIDTH1 0 -27
BITMAP 
0E10
1FE0
21C0
0000
0000
F03E
3808
3808
3C08
2E08
2708
2708
2388
21C8
20C8
20E8
2078
2038
2038
2018
F808
ENDCHAR
STARTCHAR ordfeminine
ENCODING 166
SWIDTH 343 0
DWIDTH 8 0
BBX 7 10 1 7
VVECTOR 5 21
SWIDTH1 0 -1157
DWIDTH1 0 -27
BITMAP 
78
CC
0C
1C
6C
CC
DE
66
00
FE
ENDCHAR
STARTCHAR ordmasculine
ENCODING 167
SWIDTH 343 0
DWIDTH 8 0
BBX 6 10 1 7
VVECTOR 4 21
SWIDTH1 0 -1157
DWIDTH1 0 -27
BITMAP 
78
CC
CC
CC
CC
CC
CC
78
00
FC
ENDCHAR
STARTCHAR questiondown
ENCODING 168
SWIDTH 471 0
DWIDTH 11 0
BBX 9 17 1 -5
VVECTOR 6 21
SWIDTH1 0 -1157
DWIDTH1 0 -27
BITMAP 
0800
1C00
1C00
0800
0000
0800
0800
0800
1800
3000
6000
6100
E380
E380
E180
7300
3E00
ENDCHAR
STARTCHAR registered
ENCODING 169
SWIDTH 771 0
DWIDTH 18 0
BBX 16 16 1 1
VVECTOR 9 21
SWIDTH1 0 -1157
DWIDTH1 0 -27
BITMAP 
07E0
1C38
300C
6006
6FC6
C663
C623
C663
C7C3
C6C3
C663
6F36
6006
300C
1C38
07E0
ENDCHAR
STARTCHAR logicalnot
ENCODING 170
SWIDTH 600 0
DWIDTH 14 0
BBX 12 4 1 6
VVECTOR 7 21
SWIDTH1 0 -1157
DWIDTH1 0 -27
BITMAP 
FFF0
FFF0
0030
0030
ENDCHAR
STARTCHAR onehalf
ENCODING 171
SWIDTH 686 0
DWIDTH 16 0
BBX 14 17 1 0
VVECTOR 8 21
SWIDTH1 0 -1157
DWIDTH1 0 -27
BITMAP 
2018
E018
6030
6060
6060
60C0
6180
F180
0300
0638
066C
0C0C
180C
1818
3030
6024
607C
ENDCHAR
STARTCHAR onequarter
ENCODING 172
SWIDTH 686 0
DWIDTH 16 0
BBX 14 17 1 0
VVECTOR 8 21
SWIDTH1 0 -1157
DWIDTH1 0 -27
BITMAP 
6030
E030
6060
60C0
60C0
6180
6300
F300
0600
0C18
0C38
1838
3058
3058
60FC
C018
C018
ENDCHAR
STARTCHAR exclamdown
ENCODING 173
SWIDTH 300 0
DWIDTH 7 0
BBX 3 17 2 -5
VVECTOR 4 21
SWIDTH1 0 -1157
DWIDTH1 0 -27
BITMAP 
40
E0
E0
40
00
40
40
40
40
E0
E0
E0
E0
E0
E0
E0
40
ENDCHAR
STARTCHAR guillemotleft
ENCODING 174
SWIDTH 514 0
DWIDTH 12 0
BBX 10 10 1 3
VVECTOR 6 21
SWIDTH1 0 -1157
DWIDTH1 0 -27
BITMAP 
0CC0
1980
3300
6600
CC00
CC00
6600
3300
1980
0CC0
ENDCHAR
STARTCHAR guillemotright
ENCODING 175
SWIDTH 514 0
DWIDTH 12 0
BBX 10 10 1 3
VVECTOR 6 21
SWIDTH1 0 -1157
DWIDTH1 0 -27
BITMAP 
CC00
6600
3300
1980
0CC0
0CC0
1980
3300
6600
CC00
ENDCHAR
STARTCHAR ltshade
ENCODING 176
SWIDTH 643 0
DWIDTH 15 0
BBX 15 21 0 -2
VVECTOR 8 21
SWIDTH1 0 -1157
DWIDTH1 0 -27
BITMAP 
E38E
E38E
E38E
0000
0000
0000
E38E
E38E
E38E
0000
0000
0000
E38E
E38E
E38E
0000
0000
0000
E38E
E38E
E38E
ENDCHAR
STARTCHAR shade
ENCODING 177
SWIDTH 643 0
DWIDTH 15 0
BBX 15 26 0 -5
VVECTOR 8 21
SWIDTH1 0 -1157
DWIDTH1 0 -27
BITMAP 
0380
0380
E00E
E00E
E00E
0380
0380
0380
E00E
E00E
E00E
0380
0380
0380
E00E
E00E
E00E
0380
0380
0380
E00E
E00E
E00E
0380
0380
0380
ENDCHAR
STARTCHAR dkshade
ENCODING 178
SWIDTH 643 0
DWIDTH 15 0
BBX 15 26 0 -5
VVECTOR 8 21
SWIDTH1 0 -1157
DWIDTH1 0 -27
BITMAP 
1C70
1C70
E38E
E38E
E38E
1C70
1C70
1C70
E38E
E38E
E38E
1C70
1C70
1C70
E38E
E38E
E38E
1C70
1C70
1C70
E38E
E38E
E38E
1C70
1C70
1C70
ENDCHAR
STARTCHAR SF110000
ENCODING 179
SWIDTH 643 0
DWIDTH 15 0
BBX 2 27 6 -6
VVECTOR 7 21
SWIDTH1 0 -1157
DWIDTH1 0 -27
BITMAP 
C0
C0
C0
C0
C0
C0
C0
C0
C0
C0
C0
C0
C0
C0
C0
C0
C0
C0
C0
C0
C0
C0
C0
C0
C0
C0
C0
ENDCHAR
STARTCHAR SF090000
ENCODING 180
SWIDTH 643 0
DWIDTH 15 0
BBX 8 27 0 -6
VVECTOR 1 21
SWIDTH1 0 -1157
DWIDTH1 0 -27
BITMAP 
03
03
03
03
03
03
03
03
03
03
FF
FF
03
03
03
03
03
03
03
03
03
03
03
03
03
03
03
ENDCHAR
STARTCHAR Aacute
ENCODING 181
SWIDTH 729 0
DWIDTH 17 0
BBX 17 21 0 0
VVECTOR 9 21
SWIDTH1 0 -1157
DWIDTH1 0 -27
BITMAP 
00C000
018000
020000
000000
000000
008000
008000
01C000
01C000
01E000
026000
027000
043000
043800
041800
0FFC00
080C00
100E00
100600
380700
FC1F80
ENDCHAR
STARTCHAR Acircumflex
ENCODING 182
SWIDTH 729 0
DWIDTH 17 0
BBX 17 21 0 0
VVECTOR 9 21
SWIDTH1 0 -1157
DWIDTH1 0 -27
BITMAP 
008000
01C000
022000
041000
000000
008000
008000
01C000
01C000
01E000
026000
027000
043000
043800
041800
0FFC00
080C00
100E00
100600
380700
FC1F80
ENDCHAR
STARTCHAR Agrave
ENCODING 183
SWIDTH 729 0
DWIDTH 17 0
BBX 17 21 0 0
VVECTOR 9 21
SWIDTH1 0 -1157
DWIDTH1 0 -27
BITMAP 
018000
00C000
002000
000000
000000
008000
008000
01C000
01C000
01E000
026000
027000
043000
043800
041800
0FFC00
080C00
100E00
100600
380700
FC1F80
ENDCHAR
STARTCHAR copyright
ENCODING 184
SWIDTH 771 0
DWIDTH 18 0
BBX 16 16 1 1
VVECTOR 9 21
SWIDTH1 0 -1157
DWIDTH1 0 -27
BITMAP 
07E0
1C38
300C
6006
63E6
C663
CC23
CC03
CC03
CC23
C643
6386
6006
300C
1C38
07E0
ENDCHAR
STARTCHAR SF230000
ENCODING 185
SWIDTH 643 0
DWIDTH 15 0
BBX 10 27 0 -6
VVECTOR 3 21
SWIDTH1 0 -1157
DWIDTH1 0 -27
BITMAP 
0CC0
0CC0
0CC0
0CC0
0CC0
0CC0
0CC0
0CC0
FCC0
FCC0
00C0
00C0
FCC0
FCC0
0CC0
0CC0
0CC0
0CC0
0CC0
0CC0
0CC0
0CC0
0CC0
0CC0
0CC0
0CC0
0CC0
ENDCHAR
STARTCHAR SF240000
ENCODING 186
SWIDTH 643 0
DWIDTH 15 0
BBX 6 27 4 -6
VVECTOR 7 21
SWIDTH1 0 -1157
DWIDTH1 0 -27
BITMAP 
CC
CC
CC
CC
CC
CC
CC
CC
CC
CC
CC
CC
CC
CC
CC
CC
CC
CC
CC
CC
CC
CC
CC
CC
CC
CC
CC
ENDCHAR
STARTCHAR SF250000
ENCODING 187
SWIDTH 643 0
DWIDTH 15 0
BBX 10 19 0 -6
VVECTOR 3 21
SWIDTH1 0 -1157
DWIDTH1 0 -27
BITMAP 
FFC0
FFC0
00C0
00C0
FCC0
FCC0
0CC0
0CC0
0CC0
0CC0
0CC0
0CC0
0CC0
0CC0
0CC0
0CC0
0CC0
0CC0
0CC0
ENDCHAR
STARTCHAR SF260000
ENCODING 188
SWIDTH 643 0
DWIDTH 15 0
BBX 10 14 0 7
VVECTOR 3 21
SWIDTH1 0 -1157
DWIDTH1 0 -27
BITMAP 
0CC0
0CC0
0CC0
0CC0
0CC0
0CC0
0CC0
0CC0
FCC0
FCC0
00C0
00C0
FFC0
FFC0
ENDCHAR
STARTCHAR cent
ENCODING 189
SWIDTH 514 0
DWIDTH 12 0
BBX 9 16 2 -2
VVECTOR 7 21
SWIDTH1 0 -1157
DWIDTH1 0 -27
BITMAP 
0080
0080
0100
1F00
6380
4580
C400
C800
C800
D000
D000
6080
7180
7F00
8000
8000
ENDCHAR
STARTCHAR yen
ENCODING 190
SWIDTH 514 0
DWIDTH 12 0
BBX 12 17 0 0
VVECTOR 6 21
SWIDTH1 0 -1157
DWIDTH1 0 -27
BITMAP 
F070
6020
6020
3040
3040
1880
1880
FDF0
0F00
0E00
FFF0
0600
0600
0600
0600
0600
1F80
ENDCHAR
STARTCHAR SF030000
ENCODING 191
SWIDTH 643 0
DWIDTH 15 0
BBX 8 17 0 -6
VVECTOR 1 21
SWIDTH1 0 -1157
DWIDTH1 0 -27
BITMAP 
FF
FF
03
03
03
03
03
03
03
03
03
03
03
03
03
03
03
ENDCHAR
STARTCHAR SF020000
ENCODING 192
SWIDTH 643 0
DWIDTH 15 0
BBX 9 12 6 9
VVECTOR 14 21
SWIDTH1 0 -1157
DWIDTH1 0 -27
BITMAP 
C000
C000
C000
C000
C000
C000
C000
C000
C000
C000
FF80
FF80
ENDCHAR
STARTCHAR SF070000
ENCODING 193
SWIDTH 643 0
DWIDTH 15 0
BBX 15 12 0 9
VVECTOR 8 21
SWIDTH1 0 -1157
DWIDTH1 0 -27
BITMAP 
0300
0300
0300
0300
0300
0300
0300
0300
0300
0300
FFFE
FFFE
ENDCHAR
STARTCHAR SF060000
ENCODING 194
SWIDTH 643 0
DWIDTH 15 0
BBX 15 17 0 -6
VVECTOR 8 21
SWIDTH1 0 -1157
DWIDTH1 0 -27
BITMAP 
FFFE
FFFE
0300
0300
0300
0300
0300
0300
0300
0300
0300
0300
0300
0300
0300
0300
0300
ENDCHAR
STARTCHAR SF080000
ENCODING 195
SWIDTH 643 0
DWIDTH 15 0
BBX 9 27 6 -6
VVECTOR 14 21
SWIDTH1 0 -1157
DWIDTH1 0 -27
BITMAP 
C000
C000
C000
C000
C000
C000
C000
C000
C000
C000
FF80
FF80
C000
C000
C000
C000
C000
C000
C000
C000
C000
C000
C000
C000
C000
C000
C000
ENDCHAR
STARTCHAR SF100000
ENCODING 196
SWIDTH 643 0
DWIDTH 15 0
BBX 15 2 0 9
VVECTOR 8 21
SWIDTH1 0 -1157
DWIDTH1 0 -27
BITMAP 
FFFE
FFFE
ENDCHAR
STARTCHAR SF050000
ENCODING 197
SWIDTH 643 0
DWIDTH 15 0
BBX 15 27 0 -6
VVECTOR 8 21
SWIDTH1 0 -1157
DWIDTH1 0 -27
BITMAP 
0300
0300
0300
0300
0300
0300
0300
0300
0300
0300
FFFE
FFFE
0300
0300
0300
0300
0300
0300
0300
0300
0300
0300
0300
0300
0300
0300
0300
ENDCHAR
STARTCHAR atilde
ENCODING 198
SWIDTH 471 0
DWIDTH 11 0
BBX 10 16 1 0
VVECTOR 7 21
SWIDTH1 0 -1157
DWIDTH1 0 -27
BITMAP 
3900
7F00
4E00
0000
0000
3E00
6300
6300
0300
0F00
3B00
6300
C300
C740
EFC0
7980
ENDCHAR
STARTCHAR Atilde
ENCODING 199
SWIDTH 857 0
DWIDTH 20 0
BBX 17 21 0 0
VVECTOR 7 21
SWIDTH1 0 -1157
DWIDTH1 0 -27
BITMAP 
039800
07F000
0CE000
000000
000000
008000
008000
01C000
01C000
01E000
026000
027000
043000
043800
041800
0FFC00
080C00
100E00
100600
380700
FC1F80
ENDCHAR
STARTCHAR SF380000
ENCODING 200
SWIDTH 643 0
DWIDTH 15 0
BBX 11 14 4 7
VVECTOR 12 21
SWIDTH1 0 -1157
DWIDTH1 0 -27
BITMAP 
CC00
CC00
CC00
CC00
CC00
CC00
CC00
CC00
CFE0
CFE0
C000
C000
FFE0
FFE0
ENDCHAR
STARTCHAR SF390000
ENCODING 201
SWIDTH 643 0
DWIDTH 15 0
BBX 11 19 4 -6
VVECTOR 12 21
SWIDTH1 0 -1157
DWIDTH1 0 -27
BITMAP 
FFE0
FFE0
C000
C000
CFE0
CFE0
CC00
CC00
CC00
CC00
CC00
CC00
CC00
CC00
CC00
CC00
CC00
CC00
CC00
ENDCHAR
STARTCHAR SF400000
ENCODING 202
SWIDTH 643 0
DWIDTH 15 0
BBX 15 14 0 7
VVECTOR 8 21
SWIDTH1 0 -1157
DWIDTH1 0 -27
BITMAP 
0CC0
0CC0
0CC0
0CC0
0CC0
0CC0
0CC0
0CC0
FCFE
FCFE
0000
0000
FFFE
FFFE
ENDCHAR
STARTCHAR SF410000
ENCODING 203
SWIDTH 643 0
DWIDTH 15 0
BBX 15 19 0 -6
VVECTOR 8 21
SWIDTH1 0 -1157
DWIDTH1 0 -27
BITMAP 
FFFE
FFFE
0000
0000
FCFE
FCFE
0CC0
0CC0
0CC0
0CC0
0CC0
0CC0
0CC0
0CC0
0CC0
0CC0
0CC0
0CC0
0CC0
ENDCHAR
STARTCHAR SF420000
ENCODING 204
SWIDTH 643 0
DWIDTH 15 0
BBX 11 27 4 -6
VVECTOR 12 21
SWIDTH1 0 -1157
DWIDTH1 0 -27
BITMAP 
CC00
CC00
CC00
CC00
CC00
CC00
CC00
CC00
CFE0
CFE0
C000
C000
CFE0
CFE0
CC00
CC00
CC00
CC00
CC00
CC00
CC00
CC00
CC00
CC00
CC00
CC00
CC00
ENDCHAR
STARTCHAR SF430000
ENCODING 205
SWIDTH 643 0
DWIDTH 15 0
BBX 15 6 0 7
VVECTOR 8 21
SWIDTH1 0 -1157
DWIDTH1 0 -27
BITMAP 
FFFE
FFFE
0000
0000
FFFE
FFFE
ENDCHAR
STARTCHAR SF440000
ENCODING 206
SWIDTH 643 0
DWIDTH 15 0
BBX 15 27 0 -6
VVECTOR 8 21
SWIDTH1 0 -1157
DWIDTH1 0 -27
BITMAP 
0CC0
0CC0
0CC0
0CC0
0CC0
0CC0
0CC0
0CC0
FCFE
FCFE
0000
0000
FCFE
FCFE
0CC0
0CC0
0CC0
0CC0
0CC0
0CC0
0CC0
0CC0
0CC0
0CC0
0CC0
0CC0
0CC0
ENDCHAR
STARTCHAR currency
ENCODING 207
SWIDTH 514 0
DWIDTH 12 0
BBX 10 10 1 6
VVECTOR 6 21
SWIDTH1 0 -1157
DWIDTH1 0 -27
BITMAP 
DEC0
FFC0
6180
C0C0
C0C0
C0C0
C0C0
6180
FFC0
DEC0
ENDCHAR
STARTCHAR eth
ENCODING 208
SWIDTH 514 0
DWIDTH 12 0
BBX 10 17 1 0
VVECTOR 6 21
SWIDTH1 0 -1157
DWIDTH1 0 -27
BITMAP 
E600
7C00
1800
3C00
6E00
0700
0D80
3F80
73C0
61C0
C0C0
C0C0
C0C0
C0C0
E180
7300
3E00
ENDCHAR
STARTCHAR Eth
ENCODING 209
SWIDTH 729 0
DWIDTH 17 0
BBX 15 16 1 0
VVECTOR 9 21
SWIDTH1 0 -1157
DWIDTH1 0 -27
BITMAP 
FFC0
3070
3018
300C
300C
3006
3006
FE06
FE06
3006
3006
300C
300C
3018
3070
FFC0
ENDCHAR
STARTCHAR Ecircumflex
ENCODING 210
SWIDTH 643 0
DWIDTH 15 0
BBX 12 21 1 0
VVECTOR 7 21
SWIDTH1 0 -1157
DWIDTH1 0 -27
BITMAP 
0600
0F00
1980
30C0
0000
FFE0
3060
3020
3000
3000
3080
3080
3F80
3080
3080
3000
3000
3000
3010
3030
FFE0
ENDCHAR
STARTCHAR Edieresis
ENCODING 211
SWIDTH 643 0
DWIDTH 15 0
BBX 12 20 1 0
VVECTOR 7 21
SWIDTH1 0 -1157
DWIDTH1 0 -27
BITMAP 
18C0
18C0
0000
0000
FFE0
3020
3010
3000
3000
3080
3080
3F80
3080
3080
3000
3000
3000
3010
3030
FFE0
ENDCHAR
STARTCHAR Egrave
ENCODING 212
SWIDTH 643 0
DWIDTH 15 0
BBX 13 21 1 0
VVECTOR 8 21
SWIDTH1 0 -1157
DWIDTH1 0 -27
BITMAP 
0C00
0600
0100
0000
0000
FFF0
3030
3010
3000
3000
3040
3040
3FC0
3040
3040
3000
3000
3000
3008
3018
FFF0
ENDCHAR
STARTCHAR Euro
ENCODING 213
SWIDTH 257 0
DWIDTH 6 0
BBX 4 11 1 0
VVECTOR 3 21
SWIDTH1 0 -1157
DWIDTH1 0 -27
BITMAP 
20
E0
60
60
60
60
60
60
60
60
F0
ENDCHAR
STARTCHAR Iacute
ENCODING 214
SWIDTH 343 0
DWIDTH 8 0
BBX 6 21 1 0
VVECTOR 4 21
SWIDTH1 0 -1157
DWIDTH1 0 -27
BITMAP 
18
30
40
00
00
FC
30
30
30
30
30
30
30
30
30
30
30
30
30
30
FC
ENDCHAR
STARTCHAR Icircumflex
ENCODING 215
SWIDTH 343 0
DWIDTH 8 0
BBX 8 21 0 0
VVECTOR 4 21
SWIDTH1 0 -1157
DWIDTH1 0 -27
BITMAP 
18
3C
66
C3
00
7E
18
18
18
18
18
18
18
18
18
18
18
18
18
18
7E
ENDCHAR
STARTCHAR Idieresis
ENCODING 216
SWIDTH 343 0
DWIDTH 8 0
BBX 6 20 1 0
VVECTOR 4 21
SWIDTH1 0 -1157
DWIDTH1 0 -27
BITMAP 
CC
CC
00
00
FC
30
30
30
30
30
30
30
30
30
30
30
30
30
30
FC
ENDCHAR
STARTCHAR SF040000
ENCODING 217
SWIDTH 643 0
DWIDTH 15 0
BBX 8 12 0 9
VVECTOR 1 21
SWIDTH1 0 -1157
DWIDTH1 0 -27
BITMAP 
03
03
03
03
03
03
03
03
03
03
FF
FF
ENDCHAR
STARTCHAR SF010000
ENCODING 218
SWIDTH 643 0
DWIDTH 15 0
BBX 9 17 6 -6
VVECTOR 14 21
SWIDTH1 0 -1157
DWIDTH1 0 -27
BITMAP 
FF80
FF80
C000
C000
C000
C000
C000
C000
C000
C000
C000
C000
C000
C000
C000
C000
C000
ENDCHAR
STARTCHAR block
ENCODING 219
SWIDTH 643 0
DWIDTH 15 0
BBX 15 27 0 -6
VVECTOR 8 21
SWIDTH1 0 -1157
DWIDTH1 0 -27
BITMAP 
FFFE
FFFE
FFFE
FFFE
FFFE
FFFE
FFFE
FFFE
FFFE
FFFE
FFFE
FFFE
FFFE
FFFE
FFFE
FFFE
FFFE
FFFE
FFFE
FFFE
FFFE
FFFE
FFFE
FFFE
FFFE
FFFE
FFFE
ENDCHAR
STARTCHAR dnblock
ENCODING 220
SWIDTH 643 0
DWIDTH 15 0
BBX 15 16 0 -6
VVECTOR 8 21
SWIDTH1 0 -1157
DWIDTH1 0 -27
BITMAP 
FFFE
FFFE
FFFE
FFFE
FFFE
FFFE
FFFE
FFFE
FFFE
FFFE
FFFE
FFFE
FFFE
FFFE
FFFE
FFFE
ENDCHAR
STARTCHAR brokenbar
ENCODING 221
SWIDTH 257 0
DWIDTH 6 0
BBX 2 17 2 0
VVECTOR 3 21
SWIDTH1 0 -1157
DWIDTH1 0 -27
BITMAP 
C0
C0
C0
C0
C0
C0
C0
00
00
00
C0
C0
C0
C0
C0
C0
C0
ENDCHAR
STARTCHAR Igrave
ENCODING 222
SWIDTH 343 0
DWIDTH 8 0
BBX 6 21 1 0
VVECTOR 4 21
SWIDTH1 0 -1157
DWIDTH1 0 -27
BITMAP 
60
30
08
00
00
FC
30
30
30
30
30
30
30
30
30
30
30
30
30
30
FC
ENDCHAR
STARTCHAR upblock
ENCODING 223
SWIDTH 643 0
DWIDTH 15 0
BBX 15 11 0 10
VVECTOR 8 21
SWIDTH1 0 -1157
DWIDTH1 0 -27
BITMAP 
FFFE
FFFE
FFFE
FFFE
FFFE
FFFE
FFFE
FFFE
FFFE
FFFE
FFFE
ENDCHAR
STARTCHAR Oacute
ENCODING 224
SWIDTH 729 0
DWIDTH 17 0
BBX 15 21 1 0
VVECTOR 9 21
SWIDTH1 0 -1157
DWIDTH1 0 -27
BITMAP 
00C0
0180
0200
0000
0000
07C0
1C70
3018
600C
600C
C006
C006
C006
C006
C006
C006
600C
600C
3018
1C70
07C0
ENDCHAR
STARTCHAR germandbls
ENCODING 225
SWIDTH 514 0
DWIDTH 12 0
BBX 10 16 1 0
VVECTOR 6 21
SWIDTH1 0 -1157
DWIDTH1 0 -27
BITMAP 
1F00
3180
6180
6180
6180
6300
6F00
6380
6180
60C0
60C0
60C0
60C0
60C0
6D80
E700
ENDCHAR
STARTCHAR Ocircumflex
ENCODING 226
SWIDTH 729 0
DWIDTH 17 0
BBX 15 21 1 0
VVECTOR 9 21
SWIDTH1 0 -1157
DWIDTH1 0 -27
BITMAP 
0100
0380
06C0
0C60
0000
07C0
1C70
3018
600C
600C
C006
C006
C006
C006
C006
C006
600C
600C
3018
1C70
07C0
ENDCHAR
STARTCHAR Ograve
ENCODING 227
SWIDTH 729 0
DWIDTH 17 0
BBX 15 21 1 0
VVECTOR 9 21
SWIDTH1 0 -1157
DWIDTH1 0 -27
BITMAP 
0600
0300
0080
0000
0000
07C0
1C70
3018
600C
600C
C006
C006
C006
C006
C006
C006
600C
600C
3018
1C70
07C0
ENDCHAR
STARTCHAR otilde
ENCODING 228
SWIDTH 514 0
DWIDTH 12 0
BBX 10 16 1 0
VVECTOR 6 21
SWIDTH1 0 -1157
DWIDTH1 0 -27
BITMAP 
3880
7F80
4700
0000
0000
0E00
3300
6180
C0C0
C0C0
C0C0
C0C0
C0C0
6180
3300
1C00
ENDCHAR
STARTCHAR Otilde
ENCODING 229
SWIDTH 729 0
DWIDTH 17 0
BBX 15 21 1 0
VVECTOR 9 21
SWIDTH1 0 -1157
DWIDTH1 0 -27
BITMAP 
0E10
1FE0
21C0
0000
0000
07C0
1C70
3018
600C
600C
C006
C006
C006
C006
C006
C006
600C
600C
3018
1C70
07C0
ENDCHAR
STARTCHAR mu
ENCODING 230
SWIDTH 514 0
DWIDTH 12 0
BBX 11 16 1 -5
VVECTOR 7 21
SWIDTH1 0 -1157
DWIDTH1 0 -27
BITMAP 
E1C0
60C0
60C0
60C0
60C0
60C0
60C0
60C0
61C0
72E0
7C80
6000
6000
6000
6000
6000
ENDCHAR
STARTCHAR thorn
ENCODING 231
SWIDTH 514 0
DWIDTH 12 0
BBX 10 22 1 -5
VVECTOR 6 21
SWIDTH1 0 -1157
DWIDTH1 0 -27
BITMAP 
2000
E000
6000
6000
6000
6000
6E00
7F80
7180
60C0
60C0
60C0
60C0
60C0
6180
7180
6E00
6000
6000
6000
6000
F000
ENDCHAR
STARTCHAR Thorn
ENCODING 232
SWIDTH 557 0
DWIDTH 13 0
BBX 12 17 1 0
VVECTOR 8 21
SWIDTH1 0 -1157
DWIDTH1 0 -27
BITMAP 
FC00
3000
3000
3000
3F80
30E0
3030
3030
3030
3030
30E0
3F80
3000
3000
3000
3000
FC00
ENDCHAR
STARTCHAR Uacute
ENCODING 233
SWIDTH 729 0
DWIDTH 17 0
BBX 15 21 1 0
VVECTOR 9 21
SWIDTH1 0 -1157
DWIDTH1 0 -27
BITMAP 
00C0
0180
0200
0000
0000
FC3E
3008
3008
3008
3008
3008
3008
3008
3008
3008
3008
3008
3008
1810
1C30
07C0
ENDCHAR
STARTCHAR Ucircumflex
ENCODING 234
SWIDTH 729 0
DWIDTH 17 0
BBX 15 21 1 0
VVECTOR 9 21
SWIDTH1 0 -1157
DWIDTH1 0 -27
BITMAP 
0180
03C0
0660
0C30
0000
FC3E
3008
3008
3008
3008
3008
3008
3008
3008
3008
3008
3008
3008
1810
1C30
07C0
ENDCHAR
STARTCHAR Ugrave
ENCODING 235
SWIDTH 729 0
DWIDTH 17 0
BBX 15 21 1 0
VVECTOR 9 21
SWIDTH1 0 -1157
DWIDTH1 0 -27
BITMAP 
0700
0180
0040
0000
0000
FC3E
3008
3008
3008
3008
3008
3008
3008
3008
3008
3008
3008
3008
1810
1C30
07C0
ENDCHAR
STARTCHAR yacute
ENCODING 236
SWIDTH 471 0
DWIDTH 11 0
BBX 11 21 0 -5
VVECTOR 6 21
SWIDTH1 0 -1157
DWIDTH1 0 -27
BITMAP 
0300
0600
0800
0000
0000
F0E0
6040
6040
3080
3080
1900
1900
0E00
0E00
0400
0400
0800
0800
1000
D000
E000
ENDCHAR
STARTCHAR Yacute
ENCODING 237
SWIDTH 771 0
DWIDTH 18 0
BBX 18 21 0 0
VVECTOR 9 21
SWIDTH1 0 -1157
DWIDTH1 0 -27
BITMAP 
003000
006000
008000
000000
000000
FE0FC0
380300
1C0600
0C0400
0E0C00
071800
031000
03B000
01E000
00C000
00C000
00C000
00C000
00C000
00C000
03F000
ENDCHAR
STARTCHAR macron
ENCODING 238
SWIDTH 514 0
DWIDTH 12 0
BBX 12 2 0 16
VVECTOR 6 21
SWIDTH1 0 -1157
DWIDTH1 0 -27
BITMAP 
FFF0
FFF0
ENDCHAR
STARTCHAR acute
ENCODING 239
SWIDTH 343 0
DWIDTH 8 0
BBX 4 3 2 13
VVECTOR 4 21
SWIDTH1 0 -1157
DWIDTH1 0 -27
BITMAP 
30
60
80
ENDCHAR
STARTCHAR uni00AD
ENCODING 240
SWIDTH 343 0
DWIDTH 8 0
BBX 6 2 1 7
VVECTOR 4 21
SWIDTH1 0 -1157
DWIDTH1 0 -27
BITMAP 
FC
FC
ENDCHAR
STARTCHAR plusminus
ENCODING 241
SWIDTH 600 0
DWIDTH 14 0
BBX 10 15 2 0
VVECTOR 7 21
SWIDTH1 0 -1157
DWIDTH1 0 -27
BITMAP 
0C00
0C00
0C00
0C00
FFC0
FFC0
0C00
0C00
0C00
0C00
0000
0000
0000
FFC0
FFC0
ENDCHAR
STARTCHAR underscoredbl
ENCODING 242
SWIDTH 514 0
DWIDTH 12 0
BBX 12 6 0 -6
VVECTOR 6 21
SWIDTH1 0 -1157
DWIDTH1 0 -27
BITMAP 
FFF0
FFF0
0000
FFF0
FFF0
FFF0
ENDCHAR
STARTCHAR threequarters
ENCODING 243
SWIDTH 686 0
DWIDTH 16 0
BBX 14 17 1 0
VVECTOR 8 21
SWIDTH1 0 -1157
DWIDTH1 0 -27
BITMAP 
7018
D818
1830
7060
1860
18C0
D980
7180
0300
0618
0638
0C38
1858
1858
30FC
6018
6018
ENDCHAR
STARTCHAR paragraph
ENCODING 244
SWIDTH 471 0
DWIDTH 11 0
BBX 11 21 0 -4
VVECTOR 6 21
SWIDTH1 0 -1157
DWIDTH1 0 -27
BITMAP 
3FE0
7FE0
FCC0
FCC0
FCC0
FCC0
FCC0
7CC0
3CC0
0CC0
0CC0
0CC0
0CC0
0CC0
0CC0
0CC0
0CC0
0CC0
0CC0
0CC0
0CC0
ENDCHAR
STARTCHAR section
ENCODING 245
SWIDTH 514 0
DWIDTH 12 0
BBX 9 20 2 -3
VVECTOR 7 21
SWIDTH1 0 -1157
DWIDTH1 0 -27
BITMAP 
1E00
3300
6300
6000
3000
1800
3C00
4E00
C700
C380
E180
7180
3900
1E00
0C00
0600
0300
6300
6600
3C00
ENDCHAR
STARTCHAR divide
ENCODING 246
SWIDTH 600 0
DWIDTH 14 0
BBX 10 10 2 4
VVECTOR 7 21
SWIDTH1 0 -1157
DWIDTH1 0 -27
BITMAP 
0C00
0C00
0000
0000
FFC0
FFC0
0000
0000
0C00
0C00
ENDCHAR
STARTCHAR cedilla
ENCODING 247
SWIDTH 343 0
DWIDTH 8 0
BBX 6 5 1 -5
VVECTOR 4 21
SWIDTH1 0 -1157
DWIDTH1 0 -27
BITMAP 
10
20
38
8C
78
ENDCHAR
STARTCHAR degree
ENCODING 248
SWIDTH 343 0
DWIDTH 8 0
BBX 6 6 1 12
VVECTOR 4 21
SWIDTH1 0 -1157
DWIDTH1 0 -27
BITMAP 
30
78
CC
CC
78
30
ENDCHAR
STARTCHAR dieresis
ENCODING 249
SWIDTH 343 0
DWIDTH 8 0
BBX 6 2 1 14
VVECTOR 4 21
SWIDTH1 0 -1157
DWIDTH1 0 -27
BITMAP 
CC
CC
ENDCHAR
STARTCHAR periodcentered
ENCODING 250
SWIDTH 257 0
DWIDTH 6 0
BBX 4 4 1 6
VVECTOR 3 21
SWIDTH1 0 -1157
DWIDTH1 0 -27
BITMAP 
60
F0
F0
60
ENDCHAR
STARTCHAR uni00B9
ENCODING 251
SWIDTH 257 0
DWIDTH 6 0
BBX 4 8 1 9
VVECTOR 3 21
SWIDTH1 0 -1157
DWIDTH1 0 -27
BITMAP 
20
E0
60
60
60
60
60
F0
ENDCHAR
STARTCHAR uni00B3
ENCODING 252
SWIDTH 257 0
DWIDTH 6 0
BBX 5 8 0 9
VVECTOR 2 21
SWIDTH1 0 -1157
DWIDTH1 0 -27
BITMAP 
70
D8
18
70
18
18
D8
70
ENDCHAR
STARTCHAR uni00B2
ENCODING 253
SWIDTH 257 0
DWIDTH 6 0
BBX 5 8 0 9
VVECTOR 2 21
SWIDTH1 0 -1157
DWIDTH1 0 -27
BITMAP 
70
D8
18
18
30
60
48
F8
ENDCHAR
STARTCHAR filledbox
ENCODING 254
SWIDTH 729 0
DWIDTH 17 0
BBX 17 17 0 0
VVECTOR 9 21
SWIDTH1 0 -1157
DWIDTH1 0 -27
BITMAP 
FFFF80
FFFF80
FFFF80
FFFF80
FFFF80
FFFF80
FFFF80
FFFF80
FFFF80
FFFF80
FFFF80
FFFF80
FFFF80
FFFF80
FFFF80
FFFF80
FFFF80
ENDCHAR
STARTCHAR uni00A0
ENCODING 255
SWIDTH 257 0
DWIDTH 6 0
BBX 0 0 6 21
VVECTOR 9 21
SWIDTH1 0 -1157
DWIDTH1 0 -27
BITMAP 
ENDCHAR
STARTCHAR peseta
ENCODING 256
SWIDTH 1114 0
DWIDTH 26 0
BBX 23 17 1 0
VVECTOR 12 21
SWIDTH1 0 -1157
DWIDTH1 0 -27
BITMAP 
FFC000
38E000
387000
387000
387000
387000
387400
38EC00
3FDF1E
380C26
380C32
380C38
380C1C
380C0E
380CA6
380F36
FE063C
ENDCHAR
STARTCHAR revlogicalnot
ENCODING 257
SWIDTH 600 0
DWIDTH 14 0
BBX 11 9 2 0
VVECTOR 8 21
SWIDTH1 0 -1157
DWIDTH1 0 -27
BITMAP 
FFE0
FFE0
C000
C000
C000
C000
C000
C000
C000
ENDCHAR
STARTCHAR SF190000
ENCODING 258
SWIDTH 643 0
DWIDTH 15 0
BBX 8 27 0 -6
VVECTOR 1 21
SWIDTH1 0 -1157
DWIDTH1 0 -27
BITMAP 
03
03
03
03
03
03
03
03
FF
FF
03
03
FF
FF
03
03
03
03
03
03
03
03
03
03
03
03
03
ENDCHAR
STARTCHAR SF200000
ENCODING 259
SWIDTH 643 0
DWIDTH 15 0
BBX 10 27 0 -6
VVECTOR 3 21
SWIDTH1 0 -1157
DWIDTH1 0 -27
BITMAP 
0CC0
0CC0
0CC0
0CC0
0CC0
0CC0
0CC0
0CC0
0CC0
0CC0
FCC0
FCC0
0CC0
0CC0
0CC0
0CC0
0CC0
0CC0
0CC0
0CC0
0CC0
0CC0
0CC0
0CC0
0CC0
0CC0
0CC0
ENDCHAR
STARTCHAR SF210000
ENCODING 260
SWIDTH 643 0
DWIDTH 15 0
BBX 10 17 0 -6
VVECTOR 3 21
SWIDTH1 0 -1157
DWIDTH1 0 -27
BITMAP 
FFC0
FFC0
0CC0
0CC0
0CC0
0CC0
0CC0
0CC0
0CC0
0CC0
0CC0
0CC0
0CC0
0CC0
0CC0
0CC0
0CC0
ENDCHAR
STARTCHAR SF220000
ENCODING 261
SWIDTH 643 0
DWIDTH 15 0
BBX 8 19 0 -6
VVECTOR 1 21
SWIDTH1 0 -1157
DWIDTH1 0 -27
BITMAP 
FF
FF
03
03
FF
FF
03
03
03
03
03
03
03
03
03
03
03
03
03
ENDCHAR
STARTCHAR SF270000
ENCODING 262
SWIDTH 643 0
DWIDTH 15 0
BBX 10 12 0 9
VVECTOR 3 21
SWIDTH1 0 -1157
DWIDTH1 0 -27
BITMAP 
0CC0
0CC0
0CC0
0CC0
0CC0
0CC0
0CC0
0CC0
0CC0
0CC0
FFC0
FFC0
ENDCHAR
STARTCHAR SF280000
ENCODING 263
SWIDTH 643 0
DWIDTH 15 0
BBX 8 14 0 7
VVECTOR 1 21
SWIDTH1 0 -1157
DWIDTH1 0 -27
BITMAP 
03
03
03
03
03
03
03
03
FF
FF
03
03
FF
FF
ENDCHAR
STARTCHAR SF360000
ENCODING 264
SWIDTH 643 0
DWIDTH 15 0
BBX 9 27 6 -6
VVECTOR 14 21
SWIDTH1 0 -1157
DWIDTH1 0 -27
BITMAP 
C000
C000
C000
C000
C000
C000
C000
C000
FF80
FF80
C000
C000
FF80
FF80
C000
C000
C000
C000
C000
C000
C000
C000
C000
C000
C000
C000
C000
ENDCHAR
STARTCHAR SF370000
ENCODING 265
SWIDTH 643 0
DWIDTH 15 0
BBX 11 27 4 -6
VVECTOR 12 21
SWIDTH1 0 -1157
DWIDTH1 0 -27
BITMAP 
CC00
CC00
CC00
CC00
CC00
CC00
CC00
CC00
CC00
CC00
CFE0
CFE0
CC00
CC00
CC00
CC00
CC00
CC00
CC00
CC00
CC00
CC00
CC00
CC00
CC00
CC00
CC00
ENDCHAR
STARTCHAR SF450000
ENCODING 266
SWIDTH 643 0
DWIDTH 15 0
BBX 15 14 0 7
VVECTOR 8 21
SWIDTH1 0 -1157
DWIDTH1 0 -27
BITMAP 
0300
0300
0300
0300
0300
0300
0300
0300
FFFE
FFFE
0000
0000
FFFE
FFFE
ENDCHAR
STARTCHAR SF460000
ENCODING 267
SWIDTH 643 0
DWIDTH 15 0
BBX 15 12 0 9
VVECTOR 8 21
SWIDTH1 0 -1157
DWIDTH1 0 -27
BITMAP 
0CC0
0CC0
0CC0
0CC0
0CC0
0CC0
0CC0
0CC0
0CC0
0CC0
FFFE
FFFE
ENDCHAR
STARTCHAR SF470000
ENCODING 268
SWIDTH 643 0
DWIDTH 15 0
BBX 15 19 0 -6
VVECTOR 8 21
SWIDTH1 0 -1157
DWIDTH1 0 -27
BITMAP 
FFFE
FFFE
0000
0000
FFFE
FFFE
0300
0300
0300
0300
0300
0300
0300
0300
0300
0300
0300
0300
0300
ENDCHAR
STARTCHAR SF480000
ENCODING 269
SWIDTH 643 0
DWIDTH 15 0
BBX 15 17 0 -6
VVECTOR 8 21
SWIDTH1 0 -1157
DWIDTH1 0 -27
BITMAP 
FFFE
FFFE
0CC0
0CC0
0CC0
0CC0
0CC0
0CC0
0CC0
0CC0
0CC0
0CC0
0CC0
0CC0
0CC0
0CC0
0CC0
ENDCHAR
STARTCHAR SF490000
ENCODING 270
SWIDTH 643 0
DWIDTH 15 0
BBX 11 12 4 9
VVECTOR 12 21
SWIDTH1 0 -1157
DWIDTH1 0 -27
BITMAP 
CC00
CC00
CC00
CC00
CC00
CC00
CC00
CC00
CC00
CC00
FFE0
FFE0
ENDCHAR
STARTCHAR SF500000
ENCODING 271
SWIDTH 643 0
DWIDTH 15 0
BBX 9 14 6 7
VVECTOR 14 21
SWIDTH1 0 -1157
DWIDTH1 0 -27
BITMAP 
C000
C000
C000
C000
C000
C000
C000
C000
FF80
FF80
C000
C000
FF80
FF80
ENDCHAR
STARTCHAR SF510000
ENCODING 272
SWIDTH 643 0
DWIDTH 15 0
BBX 9 19 6 -6
VVECTOR 14 21
SWIDTH1 0 -1157
DWIDTH1 0 -27
BITMAP 
FF80
FF80
C000
C000
FF80
FF80
C000
C000
C000
C000
C000
C000
C000
C000
C000
C000
C000
C000
C000
ENDCHAR
STARTCHAR SF520000
ENCODING 273
SWIDTH 643 0
DWIDTH 15 0
BBX 11 17 4 -6
VVECTOR 12 21
SWIDTH1 0 -1157
DWIDTH1 0 -27
BITMAP 
FFE0
FFE0
CC00
CC00
CC00
CC00
CC00
CC00
CC00
CC00
CC00
CC00
CC00
CC00
CC00
CC00
CC00
ENDCHAR
STARTCHAR SF530000
ENCODING 274
SWIDTH 643 0
DWIDTH 15 0
BBX 15 27 0 -6
VVECTOR 8 21
SWIDTH1 0 -1157
DWIDTH1 0 -27
BITMAP 
0CC0
0CC0
0CC0
0CC0
0CC0
0CC0
0CC0
0CC0
0CC0
0CC0
FFFE
FFFE
0CC0
0CC0
0CC0
0CC0
0CC0
0CC0
0CC0
0CC0
0CC0
0CC0
0CC0
0CC0
0CC0
0CC0
0CC0
ENDCHAR
STARTCHAR SF540000
ENCODING 275
SWIDTH 643 0
DWIDTH 15 0
BBX 15 27 0 -6
VVECTOR 8 21
SWIDTH1 0 -1157
DWIDTH1 0 -27
BITMAP 
0300
0300
0300
0300
0300
0300
0300
0300
FFFE
FFFE
0300
0300
FFFE
FFFE
0300
0300
0300
0300
0300
0300
0300
0300
0300
0300
0300
0300
0300
ENDCHAR
STARTCHAR lfblock
ENCODING 276
SWIDTH 643 0
DWIDTH 15 0
BBX 8 27 0 -6
VVECTOR 1 21
SWIDTH1 0 -1157
DWIDTH1 0 -27
BITMAP 
FF
FF
FF
FF
FF
FF
FF
FF
FF
FF
FF
FF
FF
FF
FF
FF
FF
FF
FF
FF
FF
FF
FF
FF
FF
FF
FF
ENDCHAR
STARTCHAR rtblock
ENCODING 277
SWIDTH 643 0
DWIDTH 15 0
BBX 8 27 7 -6
VVECTOR 15 21
SWIDTH1 0 -1157
DWIDTH1 0 -27
BITMAP 
FF
FF
FF
FF
FF
FF
FF
FF
FF
FF
FF
FF
FF
FF
FF
FF
FF
FF
FF
FF
FF
FF
FF
FF
FF
FF
FF
ENDCHAR
STARTCHAR alpha
ENCODING 278
SWIDTH 600 0
DWIDTH 14 0
BBX 12 12 1 0
VVECTOR 7 21
SWIDTH1 0 -1157
DWIDTH1 0 -27
BITMAP 
1E30
3370
6160
61E0
C1C0
C0C0
C0C0
C180
C180
63C0
7EF0
1C60
ENDCHAR
STARTCHAR Gamma
ENCODING 279
SWIDTH 600 0
DWIDTH 14 0
BBX 13 17 1 0
VVECTOR 8 21
SWIDTH1 0 -1157
DWIDTH1 0 -27
BITMAP 
FFF8
3838
1818
1808
1808
1800
1800
1800
1800
1800
1800
1800
1800
1800
1800
3C00
FF00
ENDCHAR
STARTCHAR pi
ENCODING 280
SWIDTH 600 0
DWIDTH 14 0
BBX 13 12 0 0
VVECTOR 6 21
SWIDTH1 0 -1157
DWIDTH1 0 -27
BITMAP 
3FF8
7FF8
8840
08C0
08C0
08C0
08C0
08C0
08C0
18C0
38F0
3060
ENDCHAR
STARTCHAR Sigma
ENCODING 281
SWIDTH 600 0
DWIDTH 14 0
BBX 13 17 1 0
VVECTOR 8 21
SWIDTH1 0 -1157
DWIDTH1 0 -27
BITMAP 
7FF0
7030
3810
3810
1C00
1C00
0E00
0E00
0700
0700
0600
0C00
1800
3008
6018
FFF0
FFF0
ENDCHAR
STARTCHAR sigma
ENCODING 282
SWIDTH 557 0
DWIDTH 13 0
BBX 11 12 1 0
VVECTOR 7 21
SWIDTH1 0 -1157
DWIDTH1 0 -27
BITMAP 
3FE0
7FE0
6300
C180
C1C0
C0C0
C0C0
C0C0
C0C0
6180
7380
1E00
ENDCHAR
STARTCHAR tau
ENCODING 283
SWIDTH 471 0
DWIDTH 11 0
BBX 10 12 0 0
VVECTOR 5 21
SWIDTH1 0 -1157
DWIDTH1 0 -27
BITMAP 
3FC0
7FC0
C400
0C00
0C00
0C00
0C00
0C00
0C00
0C00
0F00
0600
ENDCHAR
STARTCHAR Phi
ENCODING 284
SWIDTH 814 0
DWIDTH 19 0
BBX 19 17 0 0
VVECTOR 10 21
SWIDTH1 0 -1157
DWIDTH1 0 -27
BITMAP 
03F800
00E000
00E000
0FFE00
3CE780
70E1C0
E0E0E0
C0E060
C0E060
C0E060
E0E0E0
70E1C0
3CE780
0FFE00
00E000
00E000
03F800
ENDCHAR
STARTCHAR Theta
ENCODING 285
SWIDTH 729 0
DWIDTH 17 0
BBX 15 17 1 0
VVECTOR 9 21
SWIDTH1 0 -1157
DWIDTH1 0 -27
BITMAP 
07C0
1EF0
3838
701C
600C
E00E
C826
CC66
CFE6
CC66
C826
E00E
600C
701C
3838
1EF0
07C0
ENDCHAR
STARTCHAR uni03A9
ENCODING 286
SWIDTH 771 0
DWIDTH 18 0
BBX 16 17 1 0
VVECTOR 9 21
SWIDTH1 0 -1157
DWIDTH1 0 -27
BITMAP 
07E0
1C38
381C
300C
700E
6006
6006
6006
6006
6006
700E
300C
300C
9819
8C31
FE7F
FE7F
ENDCHAR
STARTCHAR delta
ENCODING 287
SWIDTH 514 0
DWIDTH 12 0
BBX 10 17 1 0
VVECTOR 6 21
SWIDTH1 0 -1157
DWIDTH1 0 -27
BITMAP 
3E00
7F80
4300
7000
3800
1E00
7700
6380
E1C0
C0C0
C0C0
C0C0
C0C0
E1C0
6180
7380
1E00
ENDCHAR
STARTCHAR infinity
ENCODING 288
SWIDTH 729 0
DWIDTH 17 0
BBX 15 8 1 4
VVECTOR 9 21
SWIDTH1 0 -1157
DWIDTH1 0 -27
BITMAP 
3C78
66CC
C386
C106
C106
C386
66CC
3C78
ENDCHAR
STARTCHAR phi1
ENCODING 289
SWIDTH 600 0
DWIDTH 14 0
BBX 12 20 1 -5
VVECTOR 7 21
SWIDTH1 0 -1157
DWIDTH1 0 -27
BITMAP 
0600
0600
0600
0600
1F80
76E0
6660
C630
C630
C630
C630
C630
6660
76E0
1F80
0600
0600
0600
0600
0600
ENDCHAR
STARTCHAR epsilon
ENCODING 290
SWIDTH 471 0
DWIDTH 11 0
BBX 9 12 1 0
VVECTOR 6 21
SWIDTH1 0 -1157
DWIDTH1 0 -27
BITMAP 
3E00
FF00
C100
C000
5C00
7E00
DC00
C000
C080
E100
7F00
3E00
ENDCHAR
STARTCHAR intersection
ENCODING 291
SWIDTH 686 0
DWIDTH 16 0
BBX 12 16 2 0
VVECTOR 8 21
SWIDTH1 0 -1157
DWIDTH1 0 -27
BITMAP 
0F00
3FC0
70E0
6060
E070
C030
C030
C030
C030
C030
C030
C030
C030
C030
C030
C030
ENDCHAR
STARTCHAR equivalence
ENCODING 292
SWIDTH 600 0
DWIDTH 14 0
BBX 10 10 2 4
VVECTOR 7 21
SWIDTH1 0 -1157
DWIDTH1 0 -27
BITMAP 
FFC0
FFC0
0000
0000
FFC0
FFC0
0000
0000
FFC0
FFC0
ENDCHAR
STARTCHAR greaterequal
ENCODING 293
SWIDTH 600 0
DWIDTH 14 0
BBX 10 14 2 0
VVECTOR 7 21
SWIDTH1 0 -1157
DWIDTH1 0 -27
BITMAP 
8000
E000
7800
1E00
0780
01C0
0780
1E00
7800
E000
8000
0000
FFC0
FFC0
ENDCHAR
STARTCHAR lessequal
ENCODING 294
SWIDTH 600 0
DWIDTH 14 0
BBX 10 14 2 0
VVECTOR 7 21
SWIDTH1 0 -1157
DWIDTH1 0 -27
BITMAP 
0040
01C0
0780
1E00
7800
E000
7800
1E00
0780
01C0
0040
0000
FFC0
FFC0
ENDCHAR
STARTCHAR integraltp
ENCODING 295
SWIDTH 729 0
DWIDTH 17 0
BBX 6 24 7 -5
VVECTOR 12 21
SWIDTH1 0 -1157
DWIDTH1 0 -27
BITMAP 
38
7C
5C
C8
C0
C0
C0
C0
C0
C0
C0
C0
C0
C0
C0
C0
C0
C0
C0
C0
C0
C0
C0
C0
ENDCHAR
STARTCHAR integralbt
ENCODING 296
SWIDTH 729 0
DWIDTH 17 0
BBX 6 24 4 -5
VVECTOR 6 21
SWIDTH1 0 -1157
DWIDTH1 0 -27
BITMAP 
0C
0C
0C
0C
0C
0C
0C
0C
0C
0C
0C
0C
0C
0C
0C
0C
0C
0C
0C
0C
4C
E8
F8
70
ENDCHAR
STARTCHAR approxequal
ENCODING 297
SWIDTH 557 0
DWIDTH 13 0
BBX 11 7 1 5
VVECTOR 7 21
SWIDTH1 0 -1157
DWIDTH1 0 -27
BITMAP 
3C60
7FC0
C780
0000
3C60
7FC0
C780
ENDCHAR
STARTCHAR uni2219
ENCODING 298
SWIDTH 600 0
DWIDTH 14 0
BBX 2 2 6 8
VVECTOR 7 21
SWIDTH1 0 -1157
DWIDTH1 0 -27
BITMAP 
C0
C0
ENDCHAR
STARTCHAR radical
ENCODING 299
SWIDTH 729 0
DWIDTH 17 0
BBX 16 20 1 0
VVECTOR 10 21
SWIDTH1 0 -1157
DWIDTH1 0 -27
BITMAP 
001F
001F
0030
0030
0030
0060
0060
0060
00C0
00C0
00C0
F180
F180
1980
1B00
1B00
0F00
0E00
0600
0600
ENDCHAR
STARTCHAR uni207F
ENCODING 300
SWIDTH 343 0
DWIDTH 8 0
BBX 8 7 0 5
VVECTOR 4 21
SWIDTH1 0 -1157
DWIDTH1 0 -27
BITMAP 
EC
76
66
66
66
66
EF
ENDCHAR
STARTCHAR uni02C9
ENCODING 301
SWIDTH 343 0
DWIDTH 8 0
BBX 8 2 0 18
VVECTOR 4 21
SWIDTH1 0 -1157
DWIDTH1 0 -27
BITMAP 
FF
FF
ENDCHAR
STARTCHAR breve
ENCODING 302
SWIDTH 343 0
DWIDTH 8 0
BBX 8 3 0 17
VVECTOR 4 21
SWIDTH1 0 -1157
DWIDTH1 0 -27
BITMAP 
C3
66
3C
ENDCHAR
STARTCHAR dotaccent
ENCODING 303
SWIDTH 343 0
DWIDTH 8 0
BBX 2 2 3 18
VVECTOR 4 21
SWIDTH1 0 -1157
DWIDTH1 0 -27
BITMAP 
C0
C0
ENDCHAR
STARTCHAR ring
ENCODING 304
SWIDTH 343 0
DWIDTH 8 0
BBX 4 4 2 16
VVECTOR 4 21
SWIDTH1 0 -1157
DWIDTH1 0 -27
BITMAP 
60
90
90
60
ENDCHAR
STARTCHAR hungarumlaut
ENCODING 305
SWIDTH 386 0
DWIDTH 9 0
BBX 9 2 0 18
VVECTOR 5 21
SWIDTH1 0 -1157
DWIDTH1 0 -27
BITMAP 
7380
C600
ENDCHAR
STARTCHAR ogonek
ENCODING 306
SWIDTH 343 0
DWIDTH 8 0
BBX 6 5 1 -5
VVECTOR 4 21
SWIDTH1 0 -1157
DWIDTH1 0 -27
BITMAP 
40
C0
C0
EC
78
ENDCHAR
STARTCHAR caron
ENCODING 307
SWIDTH 343 0
DWIDTH 8 0
BBX 5 2 1 18
VVECTOR 3 21
SWIDTH1 0 -1157
DWIDTH1 0 -27
BITMAP 
D8
70
ENDCHAR
STARTCHAR quoteleft
ENCODING 308
SWIDTH 343 0
DWIDTH 8 0
BBX 3 6 2 14
VVECTOR 3 21
SWIDTH1 0 -1157
DWIDTH1 0 -27
BITMAP 
20
40
80
C0
E0
40
ENDCHAR
STARTCHAR quoteright
ENCODING 309
SWIDTH 343 0
DWIDTH 8 0
BBX 3 6 2 14
VVECTOR 3 21
SWIDTH1 0 -1157
DWIDTH1 0 -27
BITMAP 
40
E0
60
20
40
80
ENDCHAR
STARTCHAR quotedblleft
ENCODING 310
SWIDTH 471 0
DWIDTH 11 0
BBX 7 6 2 14
VVECTOR 6 21
SWIDTH1 0 -1157
DWIDTH1 0 -27
BITMAP 
22
44
88
CC
EE
44
ENDCHAR
STARTCHAR quotedblright
ENCODING 311
SWIDTH 471 0
DWIDTH 11 0
BBX 7 6 2 14
VVECTOR 6 21
SWIDTH1 0 -1157
DWIDTH1 0 -27
BITMAP 
44
EE
66
22
44
88
ENDCHAR
STARTCHAR endash
ENCODING 312
SWIDTH 514 0
DWIDTH 12 0
BBX 11 2 0 5
VVECTOR 5 21
SWIDTH1 0 -1157
DWIDTH1 0 -27
BITMAP 
FFE0
FFE0
ENDCHAR
STARTCHAR emdash
ENCODING 313
SWIDTH 1029 0
DWIDTH 24 0
BBX 17 2 0 5
VVECTOR 5 21
SWIDTH1 0 -1157
DWIDTH1 0 -27
BITMAP 
FFFF80
FFFF80
ENDCHAR
STARTCHAR uniFFE5
ENCODING 314
SWIDTH 471 0
DWIDTH 11 0
BBX 7 3 2 17
VVECTOR 6 21
SWIDTH1 0 -1157
DWIDTH1 0 -27
BITMAP 
38
6C
C6
ENDCHAR
STARTCHAR dotlessi
ENCODING 315
SWIDTH 557 0
DWIDTH 13 0
BBX 9 2 2 18
VVECTOR 7 21
SWIDTH1 0 -1157
DWIDTH1 0 -27
BITMAP 
7880
8F00
ENDCHAR
STARTCHAR quotesinglbase
ENCODING 316
SWIDTH 343 0
DWIDTH 8 0
BBX 3 7 3 -3
VVECTOR 5 21
SWIDTH1 0 -1157
DWIDTH1 0 -27
BITMAP 
40
E0
E0
60
20
20
40
ENDCHAR
STARTCHAR quotedblbase
ENCODING 317
SWIDTH 471 0
DWIDTH 11 0
BBX 7 7 2 -3
VVECTOR 6 21
SWIDTH1 0 -1157
DWIDTH1 0 -27
BITMAP 
44
EE
EE
66
22
22
44
ENDCHAR
STARTCHAR ellipsis
ENCODING 318
SWIDTH 1029 0
DWIDTH 24 0
BBX 19 4 3 0
VVECTOR 13 21
SWIDTH1 0 -1157
DWIDTH1 0 -27
BITMAP 
404040
E0E0E0
E0E0E0
404040
ENDCHAR
STARTCHAR dagger
ENCODING 319
SWIDTH 514 0
DWIDTH 12 0
BBX 10 20 1 0
VVECTOR 6 21
SWIDTH1 0 -1157
DWIDTH1 0 -27
BITMAP 
0C00
0C00
0C00
0C00
0C00
FFC0
0C00
0C00
0C00
0C00
0C00
0C00
0C00
0C00
0C00
0C00
0C00
0C00
0C00
0C00
ENDCHAR
STARTCHAR daggerdbl
ENCODING 320
SWIDTH 514 0
DWIDTH 12 0
BBX 10 20 1 0
VVECTOR 6 21
SWIDTH1 0 -1157
DWIDTH1 0 -27
BITMAP 
0C00
0C00
0C00
0C00
0C00
FFC0
0C00
0C00
0C00
0C00
0C00
0C00
0C00
0C00
FFC0
0C00
0C00
0C00
0C00
0C00
ENDCHAR
STARTCHAR circumflex
ENCODING 321
SWIDTH 343 0
DWIDTH 8 0
BBX 8 4 0 13
VVECTOR 4 21
SWIDTH1 0 -1157
DWIDTH1 0 -27
BITMAP 
18
3C
66
C3
ENDCHAR
STARTCHAR perthousand
ENCODING 322
SWIDTH 1029 0
DWIDTH 24 0
BBX 23 16 1 0
VVECTOR 13 21
SWIDTH1 0 -1157
DWIDTH1 0 -27
BITMAP 
1C3800
33D000
622000
622000
C24000
C4C000
CC8000
790000
011C1C
023232
066262
046262
0CC2C2
08C4C4
10CCCC
107878
ENDCHAR
STARTCHAR Scaron
ENCODING 323
SWIDTH 557 0
DWIDTH 13 0
BBX 11 21 1 0
VVECTOR 7 21
SWIDTH1 0 -1157
DWIDTH1 0 -27
BITMAP 
3180
1B00
0E00
0400
0000
3F40
61C0
C0C0
C040
E040
7000
7C00
1F00
07C0
01C0
00E0
8060
8060
C0C0
E1C0
BF00
ENDCHAR
STARTCHAR guilsinglleft
ENCODING 324
SWIDTH 343 0
DWIDTH 8 0
BBX 6 10 1 3
VVECTOR 4 21
SWIDTH1 0 -1157
DWIDTH1 0 -27
BITMAP 
0C
18
30
60
C0
C0
60
30
18
0C
ENDCHAR
STARTCHAR OE
ENCODING 325
SWIDTH 943 0
DWIDTH 22 0
BBX 20 16 1 0
VVECTOR 11 21
SWIDTH1 0 -1157
DWIDTH1 0 -27
BITMAP 
07FFE0
1C7060
303020
603000
603000
C03080
C03080
C03F80
C03080
C03080
C03000
603000
603000
303010
1C7030
07FFE0
ENDCHAR
STARTCHAR tilde
ENCODING 326
SWIDTH 343 0
DWIDTH 8 0
BBX 8 3 0 13
VVECTOR 4 21
SWIDTH1 0 -1157
DWIDTH1 0 -27
BITMAP 
71
FF
8E
ENDCHAR
STARTCHAR trademark
ENCODING 327
SWIDTH 1029 0
DWIDTH 24 0
BBX 24 10 0 6
VVECTOR 12 21
SWIDTH1 0 -1157
DWIDTH1 0 -27
BITMAP 
FF7C1F
993416
183636
183226
183226
183366
183146
1831C6
183086
3C788F
ENDCHAR
STARTCHAR scaron
ENCODING 328
SWIDTH 429 0
DWIDTH 10 0
BBX 8 17 1 0
VVECTOR 5 21
SWIDTH1 0 -1157
DWIDTH1 0 -27
BITMAP 
63
36
1C
08
00
00
3E
66
C2
E0
78
1E
07
83
C3
E6
9C
ENDCHAR
STARTCHAR guilsinglright
ENCODING 329
SWIDTH 343 0
DWIDTH 8 0
BBX 6 10 1 3
VVECTOR 4 21
SWIDTH1 0 -1157
DWIDTH1 0 -27
BITMAP 
C0
60
30
18
0C
0C
18
30
60
C0
ENDCHAR
STARTCHAR oe
ENCODING 330
SWIDTH 729 0
DWIDTH 17 0
BBX 17 11 0 0
VVECTOR 9 21
SWIDTH1 0 -1157
DWIDTH1 0 -27
BITMAP 
0E1E00
316300
60C180
60C180
C0FF80
C0C000
C0C000
60C000
60E180
317300
0E1C00
ENDCHAR
STARTCHAR Ydieresis
ENCODING 331
SWIDTH 771 0
DWIDTH 18 0
BBX 18 20 0 0
VVECTOR 9 21
SWIDTH1 0 -1157
DWIDTH1 0 -27
BITMAP 
031800
031800
000000
000000
FE0FC0
380300
1C0600
0C0400
0E0C00
071800
031000
03B000
01E000
00C000
00C000
00C000
00C000
00C000
00C000
07F000
ENDCHAR
STARTCHAR gbreve
ENCODING 332
SWIDTH 514 0
DWIDTH 12 0
BBX 12 21 0 -6
VVECTOR 6 21
SWIDTH1 0 -1157
DWIDTH1 0 -27
BITMAP 
30C0
1980
0F00
0000
1E00
3380
61E0
6180
6180
6180
3300
3E00
6000
7000
3F80
10E0
6070
C030
C030
E060
7F80
ENDCHAR
STARTCHAR Gbreve
ENCODING 333
SWIDTH 729 0
DWIDTH 17 0
BBX 16 20 1 0
VVECTOR 10 21
SWIDTH1 0 -1157
DWIDTH1 0 -27
BITMAP 
0C30
0660
03C0
0000
07C8
1C38
3018
6008
6008
C000
C000
C000
C03F
C00C
C00C
600C
600C
3008
1C30
07C0
ENDCHAR
STARTCHAR Idotaccent
ENCODING 334
SWIDTH 343 0
DWIDTH 8 0
BBX 6 20 1 0
VVECTOR 4 21
SWIDTH1 0 -1157
DWIDTH1 0 -27
BITMAP 
30
30
00
00
FC
30
30
30
30
30
30
30
30
30
30
30
30
30
30
FC
ENDCHAR
STARTCHAR scedilla
ENCODING 335
SWIDTH 429 0
DWIDTH 10 0
BBX 8 16 1 -5
VVECTOR 5 21
SWIDTH1 0 -1157
DWIDTH1 0 -27
BITMAP 
3E
66
C2
E0
78
1E
07
83
C3
E6
9C
08
10
1C
46
3C
ENDCHAR
STARTCHAR Scedilla
ENCODING 336
SWIDTH 557 0
DWIDTH 13 0
BBX 11 21 1 -5
VVECTOR 7 21
SWIDTH1 0 -1157
DWIDTH1 0 -27
BITMAP 
3F40
61C0
C0C0
C040
E040
7000
7C00
1F00
07C0
01C0
00E0
8060
8060
C0C0
E1C0
BF00
0400
0800
0E00
2300
1E00
ENDCHAR
STARTCHAR abreve
ENCODING 337
SWIDTH 471 0
DWIDTH 11 0
BBX 10 15 1 0
VVECTOR 7 21
SWIDTH1 0 -1157
DWIDTH1 0 -27
BITMAP 
6180
3300
1E00
0000
3E00
6300
6300
0300
0F00
3B00
6300
C300
C740
EFC0
7980
ENDCHAR
STARTCHAR Abreve
ENCODING 338
SWIDTH 729 0
DWIDTH 17 0
BBX 16 20 0 0
VVECTOR 8 21
SWIDTH1 0 -1157
DWIDTH1 0 -27
BITMAP 
0C30
0660
03C0
0000
0180
0180
03C0
02C0
0660
0460
0460
0C30
0830
0830
1FF8
1018
300C
200C
200C
F83F
ENDCHAR
STARTCHAR aogonek
ENCODING 339
SWIDTH 471 0
DWIDTH 11 0
BBX 10 16 1 -5
VVECTOR 7 21
SWIDTH1 0 -1157
DWIDTH1 0 -27
BITMAP 
3E00
6300
6300
0300
0F00
3B00
6300
C300
C740
EFC0
7980
0100
0080
0700
0C40
0780
ENDCHAR
STARTCHAR Aogonek
ENCODING 340
SWIDTH 729 0
DWIDTH 17 0
BBX 17 21 0 -5
VVECTOR 9 21
SWIDTH1 0 -1157
DWIDTH1 0 -27
BITMAP 
018000
018000
03C000
02C000
066000
046000
046000
0C3000
083000
083000
1FF800
101800
300C00
200C00
200C00
F83F00
000400
000200
000E00
001880
000F00
ENDCHAR
STARTCHAR cacute
ENCODING 341
SWIDTH 471 0
DWIDTH 11 0
BBX 9 15 1 0
VVECTOR 6 21
SWIDTH1 0 -1157
DWIDTH1 0 -27
BITMAP 
0300
0600
0800
0000
1F00
6180
4180
C000
C000
C000
C000
C000
6080
3180
1F00
ENDCHAR
STARTCHAR Cacute
ENCODING 342
SWIDTH 686 0
DWIDTH 16 0
BBX 13 20 1 0
VVECTOR 7 21
SWIDTH1 0 -1157
DWIDTH1 0 -27
BITMAP 
00C0
0180
0200
0000
07C8
1C78
3018
6008
6008
C000
C000
C000
C000
C000
C000
6000
6008
3010
1C60
0780
ENDCHAR
STARTCHAR ccaron
ENCODING 343
SWIDTH 471 0
DWIDTH 11 0
BBX 9 16 1 0
VVECTOR 6 21
SWIDTH1 0 -1157
DWIDTH1 0 -27
BITMAP 
6180
3300
1E00
0C00
0000
1F00
6180
4180
C000
C000
C000
C000
C000
6080
3180
1F00
ENDCHAR
STARTCHAR Ccaron
ENCODING 344
SWIDTH 686 0
DWIDTH 16 0
BBX 13 21 1 0
VVECTOR 7 21
SWIDTH1 0 -1157
DWIDTH1 0 -27
BITMAP 
1860
0CC0
0780
0300
0000
07C8
1C78
3018
6008
6008
C000
C000
C000
C000
C000
C000
6000
6008
3010
1C60
0780
ENDCHAR
STARTCHAR dcaron
ENCODING 345
SWIDTH 514 0
DWIDTH 12 0
BBX 10 19 1 0
VVECTOR 6 21
SWIDTH1 0 -1157
DWIDTH1 0 -27
BITMAP 
C300
6600
3C80
1B80
0180
0180
0180
0180
3D80
6380
C180
C180
C180
C180
C180
C180
C180
63C0
3D00
ENDCHAR
STARTCHAR Dcaron
ENCODING 346
SWIDTH 729 0
DWIDTH 17 0
BBX 15 21 1 0
VVECTOR 9 21
SWIDTH1 0 -1157
DWIDTH1 0 -27
BITMAP 
30C0
1980
0F00
0600
0000
FFC0
3070
3018
300C
300C
3006
3006
3006
3006
3006
3006
300C
300C
3018
3070
FFC0
ENDCHAR
STARTCHAR dcroat
ENCODING 347
SWIDTH 514 0
DWIDTH 12 0
BBX 10 17 1 0
VVECTOR 6 21
SWIDTH1 0 -1157
DWIDTH1 0 -27
BITMAP 
0080
0380
0180
0180
07C0
0180
3D80
6380
C180
C180
C180
C180
C180
C180
C180
63C0
3D00
ENDCHAR
STARTCHAR ecaron
ENCODING 348
SWIDTH 471 0
DWIDTH 11 0
BBX 9 16 1 0
VVECTOR 6 21
SWIDTH1 0 -1157
DWIDTH1 0 -27
BITMAP 
6180
3300
1E00
0C00
0000
3E00
6300
C180
C180
FF80
C000
C000
C000
6180
7300
1E00
ENDCHAR
STARTCHAR Ecaron
ENCODING 349
SWIDTH 643 0
DWIDTH 15 0
BBX 12 21 1 0
VVECTOR 7 21
SWIDTH1 0 -1157
DWIDTH1 0 -27
BITMAP 
30C0
1980
0F00
0600
0000
FFE0
3060
3020
3000
3000
3080
3080
3F80
3080
3080
3000
3000
3000
3010
3030
FFE0
ENDCHAR
STARTCHAR eogonek
ENCODING 350
SWIDTH 471 0
DWIDTH 11 0
BBX 9 16 1 -5
VVECTOR 6 21
SWIDTH1 0 -1157
DWIDTH1 0 -27
BITMAP 
3E00
6300
C180
C180
FF80
C000
C000
C000
6180
7300
1E00
0800
0400
1C00
3100
1E00
ENDCHAR
STARTCHAR Eogonek
ENCODING 351
SWIDTH 643 0
DWIDTH 15 0
BBX 12 21 1 -5
VVECTOR 7 21
SWIDTH1 0 -1157
DWIDTH1 0 -27
BITMAP 
FFE0
3060
3020
3000
3000
3080
3080
3F80
3080
3080
3000
3000
3000
3010
3030
FFE0
0200
0100
0700
0C40
0780
ENDCHAR
STARTCHAR lacute
ENCODING 352
SWIDTH 257 0
DWIDTH 6 0
BBX 4 21 1 0
VVECTOR 3 21
SWIDTH1 0 -1157
DWIDTH1 0 -27
BITMAP 
30
60
80
00
20
E0
60
60
60
60
60
60
60
60
60
60
60
60
60
60
F0
ENDCHAR
STARTCHAR Lacute
ENCODING 353
SWIDTH 643 0
DWIDTH 15 0
BBX 12 20 1 0
VVECTOR 7 21
SWIDTH1 0 -1157
DWIDTH1 0 -27
BITMAP 
0C00
1800
2000
0000
FE00
3000
3000
3000
3000
3000
3000
3000
3000
3000
3000
3000
3000
3010
3030
FFE0
ENDCHAR
STARTCHAR lcaron
ENCODING 354
SWIDTH 257 0
DWIDTH 6 0
BBX 6 21 0 0
VVECTOR 3 21
SWIDTH1 0 -1157
DWIDTH1 0 -27
BITMAP 
CC
78
30
00
10
70
30
30
30
30
30
30
30
30
30
30
30
30
30
30
78
ENDCHAR
STARTCHAR Lcaron
ENCODING 355
SWIDTH 643 0
DWIDTH 15 0
BBX 13 21 0 0
VVECTOR 6 21
SWIDTH1 0 -1157
DWIDTH1 0 -27
BITMAP 
C300
6600
3C00
1800
0000
7F00
1800
1800
1800
1800
1800
1800
1800
1800
1800
1800
1800
1800
1808
1818
7FF0
ENDCHAR
STARTCHAR lslash
ENCODING 356
SWIDTH 257 0
DWIDTH 6 0
BBX 4 17 1 0
VVECTOR 3 21
SWIDTH1 0 -1157
DWIDTH1 0 -27
BITMAP 
20
E0
60
60
60
60
60
60
70
E0
60
60
60
60
60
60
F0
ENDCHAR
STARTCHAR Lslash
ENCODING 357
SWIDTH 643 0
DWIDTH 15 0
BBX 12 16 1 0
VVECTOR 7 21
SWIDTH1 0 -1157
DWIDTH1 0 -27
BITMAP 
FE00
3000
3000
3000
3000
3000
3000
3800
7000
3000
3000
3000
3000
3010
3030
FFE0
ENDCHAR
STARTCHAR nacute
ENCODING 358
SWIDTH 514 0
DWIDTH 12 0
BBX 10 15 1 0
VVECTOR 6 21
SWIDTH1 0 -1157
DWIDTH1 0 -27
BITMAP 
0600
0C00
1000
0000
2700
EB80
7180
6180
6180
6180
6180
6180
6180
6180
F3C0
ENDCHAR
STARTCHAR Nacute
ENCODING 359
SWIDTH 729 0
DWIDTH 17 0
BBX 15 20 1 0
VVECTOR 9 21
SWIDTH1 0 -1157
DWIDTH1 0 -27
BITMAP 
00C0
0180
0200
0000
F03E
3008
3808
3C08
2C08
2608
2308
2308
2188
20C8
20C8
2068
2038
2038
2018
F808
ENDCHAR
STARTCHAR ncaron
ENCODING 360
SWIDTH 514 0
DWIDTH 12 0
BBX 10 16 1 0
VVECTOR 6 21
SWIDTH1 0 -1157
DWIDTH1 0 -27
BITMAP 
6180
3300
1E00
0C00
0000
2700
EB80
7180
6180
6180
6180
6180
6180
6180
6180
F3C0
ENDCHAR
STARTCHAR Ncaron
ENCODING 361
SWIDTH 729 0
DWIDTH 17 0
BBX 15 21 1 0
VVECTOR 9 21
SWIDTH1 0 -1157
DWIDTH1 0 -27
BITMAP 
1860
0CC0
0780
0300
0000
F03E
3008
3808
3C08
2C08
2608
2308
2308
2188
20C8
20C8
2068
2038
2038
2018
F808
ENDCHAR
STARTCHAR ohungarumlaut
ENCODING 362
SWIDTH 514 0
DWIDTH 12 0
BBX 10 15 1 0
VVECTOR 6 21
SWIDTH1 0 -1157
DWIDTH1 0 -27
BITMAP 
0CC0
1980
2200
0000
0E00
3300
6180
C0C0
C0C0
C0C0
C0C0
C0C0
6180
3300
1C00
ENDCHAR
STARTCHAR Ohungarumlaut
ENCODING 363
SWIDTH 729 0
DWIDTH 17 0
BBX 15 20 1 0
VVECTOR 9 21
SWIDTH1 0 -1157
DWIDTH1 0 -27
BITMAP 
0330
0660
0880
0000
07C0
1C70
3018
600C
600C
C006
C006
C006
C006
C006
C006
600C
600C
3018
1C70
07C0
ENDCHAR
STARTCHAR racute
ENCODING 364
SWIDTH 343 0
DWIDTH 8 0
BBX 7 15 1 0
VVECTOR 5 21
SWIDTH1 0 -1157
DWIDTH1 0 -27
BITMAP 
0C
18
20
00
2E
F6
60
60
60
60
60
60
60
60
F0
ENDCHAR
STARTCHAR Racute
ENCODING 365
SWIDTH 686 0
DWIDTH 16 0
BBX 15 20 1 0
VVECTOR 9 21
SWIDTH1 0 -1157
DWIDTH1 0 -27
BITMAP 
0300
0600
0800
0000
FFC0
3070
3030
3018
3018
3018
3030
3070
3FC0
30C0
30E0
3060
3070
3030
3038
FC1E
ENDCHAR
STARTCHAR rcaron
ENCODING 366
SWIDTH 343 0
DWIDTH 8 0
BBX 8 16 0 0
VVECTOR 4 21
SWIDTH1 0 -1157
DWIDTH1 0 -27
BITMAP 
C3
66
3C
18
00
17
7B
30
30
30
30
30
30
30
30
78
ENDCHAR
STARTCHAR Rcaron
ENCODING 367
SWIDTH 686 0
DWIDTH 16 0
BBX 15 21 1 0
VVECTOR 9 21
SWIDTH1 0 -1157
DWIDTH1 0 -27
BITMAP 
30C0
1980
0F00
0600
0000
FFC0
3070
3030
3018
3018
3018
3030
3070
3FC0
30C0
30E0
3060
3070
3030
3038
FC1E
ENDCHAR
STARTCHAR sacute
ENCODING 368
SWIDTH 429 0
DWIDTH 10 0
BBX 8 15 1 0
VVECTOR 5 21
SWIDTH1 0 -1157
DWIDTH1 0 -27
BITMAP 
06
0C
10
00
3E
66
C2
E0
78
1E
07
83
C3
E6
9C
ENDCHAR
STARTCHAR Sacute
ENCODING 369
SWIDTH 557 0
DWIDTH 13 0
BBX 11 20 1 0
VVECTOR 7 21
SWIDTH1 0 -1157
DWIDTH1 0 -27
BITMAP 
0300
0600
0800
0000
3F40
61C0
C0C0
C040
E040
7000
7C00
1F00
07C0
01C0
00E0
8060
8060
C0C0
E1C0
BF00
ENDCHAR
STARTCHAR tcaron
ENCODING 370
SWIDTH 300 0
DWIDTH 7 0
BBX 7 20 0 0
VVECTOR 4 21
SWIDTH1 0 -1157
DWIDTH1 0 -27
BITMAP 
C6
6C
38
10
00
10
10
30
30
7C
30
30
30
30
30
30
30
30
34
18
ENDCHAR
STARTCHAR Tcaron
ENCODING 371
SWIDTH 600 0
DWIDTH 14 0
BBX 14 21 0 0
VVECTOR 7 21
SWIDTH1 0 -1157
DWIDTH1 0 -27
BITMAP 
1860
0CC0
0780
0300
0000
FFFC
C30C
8304
8304
0300
0300
0300
0300
0300
0300
0300
0300
0300
0300
0300
0FC0
ENDCHAR
STARTCHAR uni0163
ENCODING 372
SWIDTH 300 0
DWIDTH 7 0
BBX 6 20 1 -5
VVECTOR 5 21
SWIDTH1 0 -1157
DWIDTH1 0 -27
BITMAP 
20
20
60
60
F8
60
60
60
60
60
60
60
60
68
30
10
20
38
8C
78
ENDCHAR
STARTCHAR uni0162
ENCODING 373
SWIDTH 600 0
DWIDTH 14 0
BBX 14 21 0 -5
VVECTOR 7 21
SWIDTH1 0 -1157
DWIDTH1 0 -27
BITMAP 
FFFC
C30C
8304
8304
0300
0300
0300
0300
0300
0300
0300
0300
0300
0300
0300
0FC0
0100
0200
0380
08C0
0780
ENDCHAR
STARTCHAR uhungarumlaut
ENCODING 374
SWIDTH 514 0
DWIDTH 12 0
BBX 10 15 1 0
VVECTOR 6 21
SWIDTH1 0 -1157
DWIDTH1 0 -27
BITMAP 
1980
3300
4400
0000
E380
6180
6180
6180
6180
6180
6180
6180
6380
35C0
1900
ENDCHAR
STARTCHAR Uhungarumlaut
ENCODING 375
SWIDTH 729 0
DWIDTH 17 0
BBX 15 20 1 0
VVECTOR 9 21
SWIDTH1 0 -1157
DWIDTH1 0 -27
BITMAP 
0318
0630
0840
0000
FC3E
3008
3008
3008
3008
3008
3008
3008
3008
3008
3008
3008
3008
1810
1C30
07C0
ENDCHAR
STARTCHAR uring
ENCODING 376
SWIDTH 514 0
DWIDTH 12 0
BBX 10 17 1 0
VVECTOR 6 21
SWIDTH1 0 -1157
DWIDTH1 0 -27
BITMAP 
1C00
3600
2200
3600
1C00
0000
E380
6180
6180
6180
6180
6180
6180
6180
6380
35C0
1900
ENDCHAR
STARTCHAR Uring
ENCODING 377
SWIDTH 729 0
DWIDTH 17 0
BBX 15 21 1 0
VVECTOR 9 21
SWIDTH1 0 -1157
DWIDTH1 0 -27
BITMAP 
0380
06C0
0440
06C0
0380
FC3E
3008
3008
3008
3008
3008
3008
3008
3008
3008
3008
3008
3008
1810
1C30
07C0
ENDCHAR
STARTCHAR zacute
ENCODING 378
SWIDTH 471 0
DWIDTH 11 0
BBX 9 15 1 0
VVECTOR 6 21
SWIDTH1 0 -1157
DWIDTH1 0 -27
BITMAP 
0600
0C00
1000
0000
7F80
4300
4600
0600
0C00
1800
1800
3000
6080
6080
FF80
ENDCHAR
STARTCHAR Zacute
ENCODING 379
SWIDTH 643 0
DWIDTH 15 0
BBX 13 20 1 0
VVECTOR 8 21
SWIDTH1 0 -1157
DWIDTH1 0 -27
BITMAP 
0180
0300
0400
0000
7FF8
6070
4060
00E0
01C0
0180
0380
0700
0600
0E00
1C00
1800
3800
7008
6018
FFF8
ENDCHAR
STARTCHAR zcaron
ENCODING 380
SWIDTH 471 0
DWIDTH 11 0
BBX 9 16 1 0
VVECTOR 6 21
SWIDTH1 0 -1157
DWIDTH1 0 -27
BITMAP 
6180
3300
1E00
0C00
0000
7F80
4300
4600
0600
0C00
1800
1800
3000
6080
6080
FF80
ENDCHAR
STARTCHAR Zcaron
ENCODING 381
SWIDTH 643 0
DWIDTH 15 0
BBX 13 21 1 0
VVECTOR 8 21
SWIDTH1 0 -1157
DWIDTH1 0 -27
BITMAP 
30C0
1980
0F00
0600
0000
7FF8
6070
4060
00E0
01C0
0180
0380
0700
0600
0E00
1C00
1800
3800
7008
6018
FFF8
ENDCHAR
STARTCHAR zdotaccent
ENCODING 382
SWIDTH 471 0
DWIDTH 11 0
BBX 9 15 1 0
VVECTOR 6 21
SWIDTH1 0 -1157
DWIDTH1 0 -27
BITMAP 
0C00
0C00
0000
0000
7F80
4300
4600
0600
0C00
1800
1800
3000
6080
6080
FF80
ENDCHAR
ENDFONT
